<?xml version="1.0" encoding="ISO-8859-1" standalone="no"?>

<!-- \vec{F} = m \vec{a} -->

<!DOCTYPE svg PUBLIC "-//W3C//DTD SVG 1.1//EN" "http://www.w3.org/Graphics/SVG/1.1/DTD/svg11.dtd">

<svg version="1.1" baseProfile="full" id="body" width="4in" height="1.25714285714in" viewBox="0 0 35 11" preserveAspectRatio="none" xmlns="http://www.w3.org/2000/svg" xmlns:xlink="http://www.w3.org/1999/xlink" xmlns:ev="http://www.w3.org/2001/xml-events">
<title>SVG drawing</title>

<desc>This was produced by version 4.4 of GNU libplot, a free library for exporting 2-D vector graphics.</desc>

<g id="content" transform="scale(1,-1) translate(-289,-655)" xml:space="preserve" stroke="black" stroke-linecap="butt" stroke-linejoin="miter" stroke-miterlimit="10.433" stroke-dasharray="none" stroke-dashoffset="0" stroke-opacity="1" fill="none" fill-rule="evenodd" fill-opacity="1" font-style="normal" font-variant="normal" font-weight="normal" font-stretch="normal" font-size-adjust="none" letter-spacing="normal" word-spacing="normal" text-anchor="start">
<path d="M295.35,652.93 L295.34,652.92 L295.32,652.9 L295.31,652.89 L295.29,652.87 L295.27,652.86 L295.26,652.84 L295.24,652.82 L295.22,652.81 L295.2,652.79 L295.18,652.77 L295.14,652.73 L295.1,652.69 L295.06,652.65 L295.05,652.63 L295.03,652.61 L295.01,652.59 L294.99,652.57 L294.98,652.55 L294.96,652.53 L294.95,652.51 L294.94,652.49 L294.92,652.47 L294.91,652.45 L294.91,652.43 L294.9,652.41 L294.89,652.39 L294.89,652.37 L294.88,652.36 L294.88,652.34 C294.88,652.24,294.98,652.14,295.08,652.14 C295.17,652.14,295.22,652.21,295.27,652.27 C295.39,652.42,295.62,652.7,296.06,652.92 C296.13,652.96,296.23,653.01,296.23,653.13 C296.23,653.23,296.16,653.28,296.09,653.33 C295.87,653.48,295.76,653.66,295.68,653.9 C295.66,653.98,295.62,654.11,295.48,654.11 C295.34,654.11,295.28,653.98,295.28,653.9 C295.28,653.85,295.36,653.53,295.52,653.33 H292.16 C291.99,653.33,291.81,653.33,291.81,653.13 C291.81,652.93,291.99,652.93,292.16,652.93 Z " stroke-width="0" fill="black" />

<path d="M296.43,651.5 H291.46 V651.35 C292.11,651.28,292.23,651.23,292.23,650.94 C292.23,650.79,292.19,650.54,292.12,650.3 L290.9,645.9 C290.72,645.3,290.65,645.24,290.08,645.16 V645 H292.59 V645.16 C292.01,645.19,291.83,645.3,291.83,645.6 C291.83,645.68,291.86,645.83,291.92,646.05 L292.54,648.27 C292.91,648.25,293.13,648.24,293.35,648.24 C293.73,648.24,293.8,648.23,293.89,648.19 C294.04,648.11,294.11,647.98,294.11,647.78 C294.11,647.62,294.09,647.5,294.04,647.19 L294.2,647.14 L294.96,649.47 L294.78,649.52 C294.33,648.62,294.3,648.62,292.63,648.6 L293.29,650.92 C293.35,651.12,293.49,651.18,293.89,651.18 C295.57,651.18,295.93,651.05,295.93,650.43 C295.93,650.37,295.93,650.32,295.92,650.19 C295.91,650.13,295.91,650.12,295.9,650 L296.11,649.98 Z " stroke-width="0" fill="black" />

<path d="M305.84,648.26 L305.87,648.26 L305.9,648.26 L305.93,648.26 L305.94,648.26 L305.96,648.26 L305.97,648.26 L305.99,648.26 L306,648.27 L306.02,648.27 L306.03,648.27 L306.04,648.27 L306.06,648.28 L306.07,648.28 L306.08,648.29 L306.09,648.29 L306.1,648.3 L306.12,648.31 L306.13,648.31 L306.13,648.32 L306.14,648.33 L306.15,648.34 L306.16,648.35 L306.16,648.35 L306.16,648.36 L306.17,648.36 L306.17,648.37 L306.17,648.38 L306.17,648.38 L306.18,648.39 L306.18,648.4 L306.18,648.41 L306.18,648.41 L306.18,648.42 L306.18,648.43 L306.18,648.44 L306.18,648.45 L306.18,648.46 C306.18,648.66,305.99,648.66,305.86,648.66 H299.89 C299.75,648.66,299.56,648.66,299.56,648.46 C299.56,648.26,299.75,648.26,299.9,648.26 Z " stroke-width="0" fill="black" />

<path d="M305.86,646.32 L305.87,646.32 L305.88,646.32 L305.91,646.32 L305.94,646.33 L305.95,646.33 L305.96,646.33 L305.98,646.33 L305.99,646.33 L306.01,646.33 L306.02,646.33 L306.03,646.34 L306.05,646.34 L306.06,646.34 L306.07,646.35 L306.08,646.35 L306.09,646.36 L306.11,646.37 L306.12,646.37 L306.13,646.38 L306.14,646.39 L306.14,646.4 L306.15,646.4 L306.15,646.41 L306.16,646.41 L306.16,646.42 L306.16,646.42 L306.17,646.43 L306.17,646.44 L306.17,646.44 L306.17,646.45 L306.18,646.46 L306.18,646.46 L306.18,646.47 L306.18,646.48 L306.18,646.49 L306.18,646.5 L306.18,646.5 L306.18,646.51 L306.18,646.52 C306.18,646.72,305.99,646.72,305.84,646.72 H299.9 C299.75,646.72,299.56,646.72,299.56,646.52 C299.56,646.32,299.75,646.32,299.89,646.32 Z " stroke-width="0" fill="black" />

<path d="M315.86,646.16 L315.85,646.14 L315.83,646.12 L315.81,646.1 L315.79,646.08 L315.78,646.06 L315.77,646.05 L315.76,646.04 L315.75,646.03 L315.75,646.02 L315.74,646.01 L315.73,646.01 L315.73,646 L315.72,645.99 L315.71,645.98 L315.71,645.97 L315.7,645.97 L315.7,645.96 L315.69,645.95 L315.69,645.95 L315.68,645.94 L315.68,645.93 L315.67,645.93 L315.67,645.92 L315.67,645.92 L315.66,645.91 L315.66,645.91 L315.66,645.91 C315.38,645.55,315.17,645.38,315.02,645.38 C314.94,645.38,314.89,645.44,314.89,645.54 C314.89,645.59,314.93,645.75,314.99,645.98 L315.66,648.49 C315.68,648.53,315.7,648.71,315.7,648.77 C315.7,649.12,315.45,649.4,315.11,649.4 C314.92,649.4,314.72,649.32,314.48,649.18 C313.99,648.85,313.58,648.38,312.89,647.28 C313.14,648.04,313.29,648.6,313.29,648.8 C313.29,649.15,313.07,649.4,312.73,649.4 C312.12,649.4,311.42,648.73,310.5,647.29 L311.08,649.38 L311.05,649.4 C310.5,649.27,310.29,649.23,309.46,649.09 V648.93 H309.71 C309.96,648.93,310.1,648.85,310.1,648.71 C310.1,648.6,309.87,647.69,309.51,646.43 C309.28,645.61,309.25,645.51,309.12,645 H309.87 C310.34,646.59,310.5,646.95,310.83,647.47 C311.39,648.32,311.99,648.88,312.33,648.88 C312.46,648.88,312.53,648.78,312.53,648.62 C312.53,648.53,312.21,647.33,311.58,645 H312.33 C312.73,646.55,312.93,647.05,313.43,647.76 C313.92,648.44,314.42,648.88,314.71,648.88 C314.82,648.88,314.91,648.78,314.91,648.67 C314.91,648.62,314.89,648.5,314.84,648.32 L314.26,646.03 C314.17,645.66,314.13,645.47,314.13,645.37 C314.13,645.07,314.27,644.91,314.53,644.91 C315,644.91,315.44,645.24,315.96,645.98 L316.02,646.05 Z " stroke-width="0" fill="black" />

<path d="M320.35,650.93 L320.34,650.92 L320.32,650.9 L320.31,650.89 L320.29,650.87 L320.27,650.86 L320.26,650.84 L320.24,650.82 L320.22,650.81 L320.2,650.79 L320.18,650.77 L320.14,650.73 L320.1,650.69 L320.06,650.65 L320.05,650.63 L320.03,650.61 L320.01,650.59 L319.99,650.57 L319.98,650.55 L319.96,650.53 L319.95,650.51 L319.94,650.49 L319.92,650.47 L319.91,650.45 L319.91,650.43 L319.9,650.41 L319.89,650.39 L319.89,650.37 L319.88,650.36 L319.88,650.34 C319.88,650.24,319.98,650.14,320.08,650.14 C320.17,650.14,320.22,650.21,320.27,650.27 C320.39,650.42,320.62,650.7,321.06,650.92 C321.13,650.96,321.23,651.01,321.23,651.13 C321.23,651.23,321.16,651.28,321.09,651.33 C320.87,651.48,320.76,651.66,320.68,651.9 C320.66,651.98,320.62,652.11,320.48,652.11 C320.34,652.11,320.28,651.98,320.28,651.9 C320.28,651.85,320.36,651.53,320.52,651.33 H317.16 C316.99,651.33,316.81,651.33,316.81,651.13 C316.81,650.93,316.99,650.93,317.16,650.93 Z " stroke-width="0" fill="black" />

<path d="M320.62,646.1 L320.61,646.08 L320.59,646.07 L320.58,646.06 L320.57,646.05 L320.56,646.03 L320.55,646.02 L320.54,646.01 L320.53,646 L320.52,645.99 L320.51,645.98 L320.5,645.97 L320.49,645.96 L320.48,645.95 L320.47,645.95 L320.46,645.94 L320.45,645.93 L320.45,645.92 L320.44,645.92 L320.42,645.9 L320.41,645.89 L320.4,645.87 L320.38,645.86 L320.37,645.85 L320.36,645.83 L320.34,645.82 C320.04,645.51,319.91,645.41,319.82,645.41 C319.75,645.41,319.69,645.47,319.69,645.54 C319.69,645.74,320.11,647.44,320.57,649.16 C320.6,649.25,320.61,649.27,320.63,649.36 L320.56,649.4 L319.96,649.32 L319.93,649.29 L319.82,648.82 C319.73,649.18,319.45,649.4,319.02,649.4 L319.08,649.18 C319.42,649.16,319.64,648.91,319.64,648.57 C319.64,647.73,319.14,646.55,318.45,645.82 C318.21,645.55,317.87,645.38,317.59,645.38 C317.23,645.38,317.01,645.67,317.01,646.12 C317.01,646.66,317.39,647.69,317.81,648.31 C318.21,648.89,318.68,649.2,319.08,649.18 H319.08 L319.02,649.4 C317.7,649.4,316.17,647.57,316.17,646 C316.17,645.3,316.55,644.89,317.19,644.89 C317.88,644.89,318.31,645.22,319.19,646.45 C318.99,645.68,318.96,645.55,318.96,645.31 C318.96,645.02,319.08,644.9,319.36,644.9 C319.76,644.9,320,645.09,320.74,646 Z " stroke-width="0" fill="black" />

</g>

</svg>

