<?xml version="1.0" encoding="ISO-8859-1" standalone="no"?>

<!-- \epsilon=1 - \chi \cdot V -->

<!DOCTYPE svg PUBLIC "-//W3C//DTD SVG 1.1//EN" "http://www.w3.org/Graphics/SVG/1.1/DTD/svg11.dtd">

<svg version="1.1" baseProfile="full" id="body" width="4in" height="0.846153846154in" viewBox="0 0 52 11" preserveAspectRatio="none" xmlns="http://www.w3.org/2000/svg" xmlns:xlink="http://www.w3.org/1999/xlink" xmlns:ev="http://www.w3.org/2001/xml-events">
<title>SVG drawing</title>

<desc>This was produced by version 4.4 of GNU libplot, a free library for exporting 2-D vector graphics.</desc>

<g id="content" transform="scale(1,-1) translate(-280,-653)" xml:space="preserve" stroke="black" stroke-linecap="butt" stroke-linejoin="miter" stroke-miterlimit="10.433" stroke-dasharray="none" stroke-dashoffset="0" stroke-opacity="1" fill="none" fill-rule="evenodd" fill-opacity="1" font-style="normal" font-variant="normal" font-weight="normal" font-stretch="normal" font-size-adjust="none" letter-spacing="normal" word-spacing="normal" text-anchor="start">
<path d="M285.02,646.25 L285,646.19 L284.97,646.13 L284.95,646.08 L284.93,646.03 L284.9,645.98 L284.88,645.93 L284.85,645.89 L284.83,645.84 L284.8,645.8 L284.77,645.76 L284.74,645.73 L284.7,645.69 L284.67,645.66 L284.63,645.63 L284.6,645.6 L284.56,645.57 L284.52,645.55 L284.48,645.52 L284.43,645.5 L284.39,645.48 L284.34,645.46 L284.3,645.44 L284.25,645.43 L284.2,645.42 L284.14,645.4 L284.09,645.39 L284.03,645.39 L283.97,645.38 L283.91,645.37 L283.85,645.37 L283.79,645.37 L283.72,645.37 C283.24,645.37,282.84,645.49,282.56,645.73 C282.36,645.91,282.29,646.1,282.29,646.43 C282.29,647.01,282.62,647.39,283.15,647.39 C283.25,647.39,283.34,647.38,283.44,647.36 C283.57,647.33,283.69,647.31,283.79,647.31 C284.09,647.31,284.31,647.45,284.31,647.63 C284.31,647.79,284.19,647.87,283.96,647.87 C283.88,647.87,283.8,647.87,283.62,647.85 C283.29,647.82,283.21,647.81,283.12,647.81 C282.61,647.81,282.29,648.16,282.29,648.7 C282.29,649.28,282.7,649.76,283.22,649.76 C283.58,649.76,283.81,649.6,283.92,649.28 C283.97,649.13,284,649.05,284.01,649.03 C284.12,648.82,284.29,648.7,284.49,648.7 C284.75,648.7,284.96,648.91,284.96,649.2 C284.96,649.72,284.29,650.11,283.36,650.11 C282.73,650.11,282.27,649.97,281.89,649.66 C281.53,649.38,281.36,649.07,281.36,648.71 C281.36,648.38,281.51,648.08,281.76,647.89 C281.9,647.8,281.98,647.75,282.3,647.6 C281.9,647.46,281.71,647.35,281.53,647.15 C281.34,646.94,281.22,646.63,281.22,646.34 C281.22,645.49,282.1,644.87,283.33,644.87 C284.44,644.87,285.05,645.28,285.25,646.16 Z " stroke-width="0" fill="black" />

<path d="M293.84,648.26 L293.87,648.26 L293.9,648.26 L293.93,648.26 L293.94,648.26 L293.96,648.26 L293.97,648.26 L293.99,648.26 L294,648.27 L294.02,648.27 L294.03,648.27 L294.04,648.27 L294.06,648.28 L294.07,648.28 L294.08,648.29 L294.09,648.29 L294.1,648.3 L294.12,648.31 L294.13,648.31 L294.13,648.32 L294.14,648.33 L294.15,648.34 L294.16,648.35 L294.16,648.35 L294.16,648.36 L294.17,648.36 L294.17,648.37 L294.17,648.38 L294.17,648.38 L294.18,648.39 L294.18,648.4 L294.18,648.41 L294.18,648.41 L294.18,648.42 L294.18,648.43 L294.18,648.44 L294.18,648.45 L294.18,648.46 C294.18,648.66,293.99,648.66,293.86,648.66 H287.89 C287.75,648.66,287.56,648.66,287.56,648.46 C287.56,648.26,287.75,648.26,287.9,648.26 Z " stroke-width="0" fill="black" />

<path d="M293.86,646.32 L293.87,646.32 L293.88,646.32 L293.91,646.32 L293.94,646.33 L293.95,646.33 L293.96,646.33 L293.98,646.33 L293.99,646.33 L294.01,646.33 L294.02,646.33 L294.03,646.34 L294.05,646.34 L294.06,646.34 L294.07,646.35 L294.08,646.35 L294.09,646.36 L294.11,646.37 L294.12,646.37 L294.13,646.38 L294.14,646.39 L294.14,646.4 L294.15,646.4 L294.15,646.41 L294.16,646.41 L294.16,646.42 L294.16,646.42 L294.17,646.43 L294.17,646.44 L294.17,646.44 L294.17,646.45 L294.18,646.46 L294.18,646.46 L294.18,646.47 L294.18,646.48 L294.18,646.49 L294.18,646.5 L294.18,646.5 L294.18,646.51 L294.18,646.52 C294.18,646.72,293.99,646.72,293.84,646.72 H287.9 C287.75,646.72,287.56,646.72,287.56,646.52 C287.56,646.32,287.75,646.32,287.89,646.32 Z " stroke-width="0" fill="black" />

<path d="M299.9,651.73 L298.11,650.83 V650.69 C298.23,650.74,298.34,650.78,298.38,650.8 C298.55,650.87,298.72,650.91,298.82,650.91 C299.03,650.91,299.12,650.76,299.12,650.44 V645.93 C299.12,645.6,299.04,645.37,298.88,645.28 C298.73,645.19,298.59,645.16,298.18,645.15 V645 H300.93 V645.15 C300.14,645.16,299.98,645.26,299.98,645.74 V651.72 Z " stroke-width="0" fill="black" />

<path d="M310.57,647.29 L310.6,647.29 L310.63,647.29 L310.66,647.29 L310.68,647.3 L310.69,647.3 L310.71,647.3 L310.72,647.3 L310.74,647.3 L310.75,647.3 L310.76,647.31 L310.78,647.31 L310.79,647.31 L310.8,647.32 L310.82,647.32 L310.83,647.33 L310.84,647.33 L310.85,647.34 L310.86,647.35 L310.87,647.36 L310.88,647.37 L310.88,647.38 L310.89,647.38 L310.89,647.39 L310.89,647.39 L310.9,647.4 L310.9,647.41 L310.9,647.41 L310.9,647.42 L310.91,647.43 L310.91,647.43 L310.91,647.44 L310.91,647.45 L310.91,647.46 L310.91,647.47 L310.91,647.47 L310.91,647.48 L310.91,647.49 C310.91,647.69,310.73,647.69,310.57,647.69 H305.18 C305.01,647.69,304.83,647.69,304.83,647.49 C304.83,647.29,305.01,647.29,305.18,647.29 Z " stroke-width="0" fill="black" />

<path d="M316.89,649.98 L315.61,647.61 L315.25,649.1 C315.1,649.73,314.72,650.11,314.23,650.11 C313.64,650.11,313.22,649.44,313.12,648.34 H313.39 C313.46,648.93,313.76,649.32,314.12,649.32 C314.36,649.32,314.62,649.16,314.79,648.93 C314.86,648.8,314.95,648.57,315.01,648.3 L315.31,647.06 L313.14,643.1 H314.2 L315.61,645.73 L315.77,644.86 C315.92,644.11,315.95,643.97,316.02,643.77 C316.23,643.22,316.57,642.91,316.98,642.91 C317.33,642.91,317.69,643.17,317.91,643.55 C318.08,643.86,318.17,644.23,318.2,644.75 H317.96 C317.86,644.4,317.82,644.3,317.75,644.2 C317.61,643.97,317.38,643.84,317.11,643.84 C316.64,643.84,316.4,644.24,316.1,645.48 L315.91,646.27 L317.93,649.98 Z " stroke-width="0" fill="black" />

<path d="M321.91,647.49 L321.91,647.52 L321.91,647.55 L321.91,647.57 L321.9,647.6 L321.9,647.62 L321.89,647.65 L321.88,647.67 L321.87,647.7 L321.86,647.72 L321.85,647.74 L321.84,647.76 L321.82,647.79 L321.81,647.81 L321.79,647.83 L321.77,647.85 L321.76,647.86 L321.74,647.88 L321.72,647.9 L321.7,647.91 L321.68,647.93 L321.66,647.94 L321.64,647.96 L321.61,647.97 L321.59,647.98 L321.57,647.99 L321.54,648 L321.52,648 L321.49,648.01 L321.47,648.01 L321.44,648.02 L321.41,648.02 L321.39,648.02 C321.1,648.02,320.86,647.78,320.86,647.49 C320.86,647.2,321.1,646.96,321.39,646.96 C321.67,646.96,321.91,647.2,321.91,647.49 Z " stroke-width="0" fill="black" />

<path d="M329.86,651.5 H328 V651.35 C328.45,651.3,328.63,651.2,328.63,651.01 C328.63,650.82,328.44,650.39,328.11,649.82 L326.06,646.27 L325.4,650.69 C325.39,650.74,325.39,650.78,325.39,650.84 C325.39,651.18,325.53,651.28,326.16,651.35 V651.5 H323.76 V651.35 C324.32,651.28,324.34,651.25,324.54,650 L325.39,644.82 H325.58 L329.3,650.95 C329.46,651.22,329.62,651.34,329.86,651.35 Z " stroke-width="0" fill="black" />

</g>

</svg>

