<?xml version="1.0" encoding="ISO-8859-1" standalone="no"?>

<!-- \Sigma = i {\text GW} -->

<!DOCTYPE svg PUBLIC "-//W3C//DTD SVG 1.1//EN" "http://www.w3.org/Graphics/SVG/1.1/DTD/svg11.dtd">

<svg version="1.1" baseProfile="full" id="body" width="4in" height="0.923076923077in" viewBox="0 0 39 9" preserveAspectRatio="none" xmlns="http://www.w3.org/2000/svg" xmlns:xlink="http://www.w3.org/1999/xlink" xmlns:ev="http://www.w3.org/2001/xml-events">
<title>SVG drawing</title>

<desc>This was produced by version 4.4 of GNU libplot, a free library for exporting 2-D vector graphics.</desc>

<g id="content" transform="scale(1,-1) translate(-286,-653)" xml:space="preserve" stroke="black" stroke-linecap="butt" stroke-linejoin="miter" stroke-miterlimit="10.433" stroke-dasharray="none" stroke-dashoffset="0" stroke-opacity="1" fill="none" fill-rule="evenodd" fill-opacity="1" font-style="normal" font-variant="normal" font-weight="normal" font-stretch="normal" font-size-adjust="none" letter-spacing="normal" word-spacing="normal" text-anchor="start">
<path d="M288.66,651.3 H290.35 C291.5,651.3,291.81,651.07,291.98,650.08 H292.24 L292.14,651.7 H287.22 L289.39,648.19 L287.05,645 H292.33 L292.87,646.79 H292.61 C292.29,646,291.99,645.83,290.84,645.83 H288.18 L290.28,648.68 Z " stroke-width="0" fill="black" />

<path d="M301.84,648.26 L301.87,648.26 L301.9,648.26 L301.93,648.26 L301.94,648.26 L301.96,648.26 L301.97,648.26 L301.99,648.26 L302,648.27 L302.02,648.27 L302.03,648.27 L302.04,648.27 L302.06,648.28 L302.07,648.28 L302.08,648.29 L302.09,648.29 L302.1,648.3 L302.12,648.31 L302.13,648.31 L302.13,648.32 L302.14,648.33 L302.15,648.34 L302.16,648.35 L302.16,648.35 L302.16,648.36 L302.17,648.36 L302.17,648.37 L302.17,648.38 L302.17,648.38 L302.18,648.39 L302.18,648.4 L302.18,648.41 L302.18,648.41 L302.18,648.42 L302.18,648.43 L302.18,648.44 L302.18,648.45 L302.18,648.46 C302.18,648.66,301.99,648.66,301.86,648.66 H295.89 C295.75,648.66,295.56,648.66,295.56,648.46 C295.56,648.26,295.75,648.26,295.9,648.26 Z " stroke-width="0" fill="black" />

<path d="M301.86,646.32 L301.87,646.32 L301.88,646.32 L301.91,646.32 L301.94,646.33 L301.95,646.33 L301.96,646.33 L301.98,646.33 L301.99,646.33 L302.01,646.33 L302.02,646.33 L302.03,646.34 L302.05,646.34 L302.06,646.34 L302.07,646.35 L302.08,646.35 L302.09,646.36 L302.11,646.37 L302.12,646.37 L302.13,646.38 L302.14,646.39 L302.14,646.4 L302.15,646.4 L302.15,646.41 L302.16,646.41 L302.16,646.42 L302.16,646.42 L302.17,646.43 L302.17,646.44 L302.17,646.44 L302.17,646.45 L302.18,646.46 L302.18,646.46 L302.18,646.47 L302.18,646.48 L302.18,646.49 L302.18,646.5 L302.18,646.5 L302.18,646.51 L302.18,646.52 C302.18,646.72,301.99,646.72,301.84,646.72 H295.9 C295.75,646.72,295.56,646.72,295.56,646.52 C295.56,646.32,295.75,646.32,295.89,646.32 Z " stroke-width="0" fill="black" />

<path d="M307.21,646.14 L307.19,646.11 L307.17,646.08 L307.15,646.05 L307.13,646.03 L307.11,646 L307.09,645.98 L307.08,645.96 L307.06,645.94 L307.05,645.92 L307.03,645.9 L307.02,645.88 L307,645.86 L306.99,645.85 L306.98,645.83 L306.97,645.82 L306.96,645.8 L306.94,645.79 L306.93,645.78 L306.92,645.76 L306.91,645.75 L306.9,645.74 L306.89,645.73 L306.88,645.71 L306.86,645.69 L306.84,645.67 L306.82,645.65 L306.8,645.63 C306.63,645.46,306.48,645.36,306.39,645.36 C306.32,645.36,306.23,645.44,306.23,645.51 C306.23,645.61,306.27,645.76,306.34,645.95 C306.34,645.98,306.36,646.05,306.39,646.12 V646.15 L306.39,646.16 L307.27,649.38 L307.24,649.4 C306.23,649.2,306.04,649.18,305.65,649.15 V648.98 C306.18,648.98,306.27,648.95,306.27,648.75 C306.27,648.67,306.25,648.51,306.19,648.31 L305.71,646.54 C305.55,645.97,305.49,645.66,305.49,645.46 C305.49,645.09,305.65,644.89,305.95,644.89 C306.41,644.89,306.77,645.19,307.34,646.03 Z " stroke-width="0" fill="black" />

<path d="M307.13,651.52 L307.11,651.52 L307.08,651.51 L307.06,651.51 L307.04,651.51 L307.01,651.5 L306.99,651.49 L306.97,651.48 L306.95,651.48 L306.92,651.46 L306.9,651.45 L306.88,651.44 L306.87,651.43 L306.85,651.41 L306.83,651.4 L306.81,651.38 L306.8,651.36 L306.78,651.35 L306.77,651.33 L306.75,651.31 L306.74,651.29 L306.73,651.26 L306.72,651.24 L306.71,651.22 L306.7,651.2 L306.69,651.17 L306.68,651.15 L306.68,651.12 L306.67,651.1 L306.67,651.07 L306.67,651.04 L306.66,651.02 L306.66,650.99 C306.66,650.67,306.85,650.46,307.14,650.46 C307.4,650.46,307.63,650.69,307.63,650.97 C307.63,651.26,307.4,651.52,307.13,651.52 Z " stroke-width="0" fill="black" />

<path d="M315.06,648.53 H312.52 V648.35 C312.95,648.32,313.07,648.29,313.19,648.21 C313.34,648.12,313.4,647.89,313.4,647.46 V645.85 C313.4,645.53,312.79,645.26,312.07,645.26 C310.45,645.26,309.45,646.4,309.45,648.25 C309.45,649.18,309.73,650.09,310.17,650.58 C310.61,651.07,311.23,651.34,311.91,651.34 C312.46,651.34,312.95,651.15,313.34,650.79 C313.64,650.51,313.8,650.24,314.05,649.63 H314.28 L314.2,651.73 H313.98 C313.92,651.55,313.74,651.41,313.53,651.41 C313.43,651.41,313.27,651.44,313.09,651.5 C312.64,651.66,312.18,651.73,311.73,651.73 C309.74,651.73,308.32,650.27,308.32,648.24 C308.32,647.26,308.59,646.52,309.14,645.93 C309.81,645.24,310.77,644.86,311.87,644.86 C312.72,644.86,313.97,645.21,314.37,645.56 V647.58 C314.37,648.17,314.48,648.3,315.06,648.35 Z " stroke-width="0" fill="black" />

<path d="M324.03,651.5 H322.18 V651.35 C322.72,651.3,322.83,651.23,322.83,650.95 C322.83,650.79,322.75,650.54,322.62,650.28 L320.76,646.61 L320.36,650.62 L320.35,650.76 C320.35,651.17,320.49,651.3,321.03,651.35 V651.5 H318.66 V651.35 C319.23,651.33,319.33,651.26,319.4,650.77 L319.49,650.08 L317.78,646.61 L317.34,650.66 C317.33,650.71,317.33,650.78,317.33,650.8 C317.33,651.19,317.45,651.28,318.06,651.35 V651.5 H315.71 V651.35 C316.04,651.3,316.12,651.28,316.21,651.19 C316.34,651.08,316.38,650.89,316.5,649.97 L317.11,644.82 H317.3 L319.51,649.34 H319.56 L320.06,644.82 H320.26 L323.28,650.63 C323.55,651.14,323.65,651.23,324.03,651.35 Z " stroke-width="0" fill="black" />

</g>

</svg>

