<?xml version="1.0" encoding="ISO-8859-1" standalone="no"?>

<!-- \phi(r)=e^{i k \cdot r}u_{k}(r) -->

<!DOCTYPE svg PUBLIC "-//W3C//DTD SVG 1.1//EN" "http://www.w3.org/Graphics/SVG/1.1/DTD/svg11.dtd">

<svg version="1.1" baseProfile="full" id="body" width="4in" height="0.764705882353in" viewBox="0 0 68 13" preserveAspectRatio="none" xmlns="http://www.w3.org/2000/svg" xmlns:xlink="http://www.w3.org/1999/xlink" xmlns:ev="http://www.w3.org/2001/xml-events">
<title>SVG drawing</title>

<desc>This was produced by version 4.4 of GNU libplot, a free library for exporting 2-D vector graphics.</desc>

<g id="content" transform="scale(1,-1) translate(-271,-655)" xml:space="preserve" stroke="black" stroke-linecap="butt" stroke-linejoin="miter" stroke-miterlimit="10.433" stroke-dasharray="none" stroke-dashoffset="0" stroke-opacity="1" fill="none" fill-rule="evenodd" fill-opacity="1" font-style="normal" font-variant="normal" font-weight="normal" font-stretch="normal" font-size-adjust="none" letter-spacing="normal" word-spacing="normal" text-anchor="start">
<path d="M275.78,644.93 V645.28 V649.65 C276.49,649.38,276.91,648.44,276.91,647.17 C276.91,646,276.51,645.32,275.78,645.28 V644.93 C277,645.1,277.88,646.22,277.88,647.62 C277.88,648.98,277.04,649.97,275.78,650.06 V650.86 C275.78,651.23,275.79,651.41,275.81,651.65 L275.34,651.84 C275.36,651.59,275.37,651.35,275.37,650.95 V650.06 V649.71 V645.33 C275.09,645.44,274.89,645.6,274.74,645.83 C274.43,646.32,274.23,647.07,274.23,647.86 C274.23,648.98,274.66,649.68,275.37,649.71 V650.06 C274.18,649.92,273.27,648.78,273.27,647.41 C273.27,646.03,274.12,645.01,275.37,644.91 V643.9 C275.37,643.46,275.36,643.18,275.34,642.9 L275.81,642.79 C275.79,643.12,275.79,643.15,275.78,643.59 V643.85 Z " stroke-width="0" fill="black" />

<path d="M281.3,642.61 L281.3,642.61 L281.3,642.62 L281.3,642.62 L281.3,642.63 L281.3,642.63 L281.29,642.63 L281.29,642.64 L281.29,642.64 L281.29,642.64 L281.29,642.65 L281.29,642.65 L281.28,642.66 L281.28,642.66 L281.28,642.67 L281.27,642.67 L281.27,642.68 L281.26,642.69 L281.26,642.69 L281.25,642.7 L281.25,642.7 L281.25,642.71 L281.24,642.71 L281.24,642.71 L281.23,642.72 L281.23,642.72 L281.23,642.73 L281.22,642.73 L281.22,642.74 L281.21,642.74 L281.21,642.75 L281.2,642.75 L281.2,642.76 L281.19,642.77 L281.18,642.77 L281.18,642.78 L281.17,642.78 L281.17,642.79 L281.16,642.8 L281.15,642.81 L281.14,642.81 L281.14,642.82 L281.13,642.83 C279.88,644.08,279.56,645.97,279.56,647.49 C279.56,649.22,279.94,650.96,281.17,652.2 C281.3,652.32,281.3,652.34,281.3,652.37 C281.3,652.44,281.26,652.47,281.2,652.47 C281.1,652.47,280.2,651.79,279.61,650.53 C279.11,649.43,278.98,648.33,278.98,647.49 C278.98,646.72,279.1,645.51,279.64,644.38 C280.24,643.16,281.1,642.51,281.2,642.51 C281.26,642.51,281.3,642.54,281.3,642.61 Z " stroke-width="0" fill="black" />

<path d="M283.21,645 L283.25,645.16 L283.3,645.3 L283.34,645.44 L283.39,645.58 L283.43,645.71 L283.47,645.83 L283.5,645.95 L283.54,646.06 L283.57,646.16 L283.61,646.27 L283.64,646.36 L283.68,646.46 L283.71,646.54 L283.74,646.63 L283.77,646.71 L283.8,646.79 L283.83,646.87 L283.86,646.94 L283.92,647.08 L283.99,647.22 L284.05,647.35 L284.12,647.48 L284.19,647.61 L284.27,647.74 L284.31,647.81 L284.35,647.88 C284.68,648.44,284.96,648.75,285.13,648.75 C285.19,648.75,285.24,648.71,285.29,648.6 C285.37,648.44,285.45,648.39,285.64,648.39 C285.93,648.39,286.11,648.57,286.11,648.88 C286.11,649.18,285.91,649.4,285.64,649.4 C285.41,649.4,285.14,649.24,284.88,648.98 C284.47,648.56,284.07,647.97,283.91,647.57 L283.77,647.21 L284.3,649.38 L284.27,649.4 C283.54,649.27,283.45,649.24,282.73,649.12 V648.96 C282.96,649,283,649,283.07,649 C283.29,649,283.41,648.91,283.41,648.73 C283.41,648.59,283.41,648.59,283.25,647.91 L282.45,645 Z " stroke-width="0" fill="black" />

<path d="M288.88,647.49 L288.88,647.57 L288.88,647.64 L288.88,647.72 L288.87,647.8 L288.87,647.97 L288.85,648.15 L288.84,648.33 L288.82,648.52 L288.79,648.72 L288.76,648.91 L288.72,649.12 L288.67,649.33 L288.62,649.54 L288.56,649.75 L288.49,649.96 L288.41,650.17 L288.37,650.28 L288.32,650.39 L288.27,650.49 L288.22,650.6 C287.62,651.82,286.77,652.47,286.67,652.47 C286.61,652.47,286.57,652.43,286.57,652.37 C286.57,652.34,286.57,652.32,286.76,652.15 C287.73,651.16,288.3,649.57,288.3,647.49 C288.3,645.78,287.93,644.03,286.7,642.78 C286.57,642.66,286.57,642.64,286.57,642.61 C286.57,642.55,286.61,642.51,286.67,642.51 C286.77,642.51,287.66,643.19,288.25,644.45 C288.76,645.55,288.88,646.65,288.88,647.49 Z " stroke-width="0" fill="black" />

<path d="M298.84,648.26 L298.87,648.26 L298.9,648.26 L298.93,648.26 L298.94,648.26 L298.96,648.26 L298.97,648.26 L298.99,648.26 L299,648.27 L299.02,648.27 L299.03,648.27 L299.04,648.27 L299.06,648.28 L299.07,648.28 L299.08,648.29 L299.09,648.29 L299.1,648.3 L299.12,648.31 L299.13,648.31 L299.13,648.32 L299.14,648.33 L299.15,648.34 L299.16,648.35 L299.16,648.35 L299.16,648.36 L299.17,648.36 L299.17,648.37 L299.17,648.38 L299.17,648.38 L299.18,648.39 L299.18,648.4 L299.18,648.41 L299.18,648.41 L299.18,648.42 L299.18,648.43 L299.18,648.44 L299.18,648.45 L299.18,648.46 C299.18,648.66,298.99,648.66,298.86,648.66 H292.89 C292.75,648.66,292.56,648.66,292.56,648.46 C292.56,648.26,292.75,648.26,292.9,648.26 Z " stroke-width="0" fill="black" />

<path d="M298.86,646.32 L298.87,646.32 L298.88,646.32 L298.91,646.32 L298.94,646.33 L298.95,646.33 L298.96,646.33 L298.98,646.33 L298.99,646.33 L299.01,646.33 L299.02,646.33 L299.03,646.34 L299.05,646.34 L299.06,646.34 L299.07,646.35 L299.08,646.35 L299.09,646.36 L299.11,646.37 L299.12,646.37 L299.13,646.38 L299.14,646.39 L299.14,646.4 L299.15,646.4 L299.15,646.41 L299.16,646.41 L299.16,646.42 L299.16,646.42 L299.17,646.43 L299.17,646.44 L299.17,646.44 L299.17,646.45 L299.18,646.46 L299.18,646.46 L299.18,646.47 L299.18,646.48 L299.18,646.49 L299.18,646.5 L299.18,646.5 L299.18,646.51 L299.18,646.52 C299.18,646.72,298.99,646.72,298.84,646.72 H292.9 C292.75,646.72,292.56,646.72,292.56,646.52 C292.56,646.32,292.75,646.32,292.89,646.32 Z " stroke-width="0" fill="black" />

<path d="M305.57,646.09 L305.5,646.03 L305.44,645.98 L305.37,645.93 L305.31,645.89 L305.26,645.84 L305.2,645.8 L305.15,645.76 L305.1,645.72 L305.05,645.69 L305,645.65 L304.95,645.62 L304.9,645.59 L304.86,645.56 L304.81,645.54 L304.77,645.52 L304.73,645.49 L304.69,645.47 L304.65,645.45 L304.61,645.44 L304.57,645.42 L304.53,645.41 L304.49,645.4 L304.46,645.38 L304.42,645.37 L304.38,645.37 L304.34,645.36 L304.31,645.35 L304.27,645.35 L304.19,645.34 L304.11,645.34 C303.54,645.34,303.18,645.7,303.18,646.23 C303.18,646.39,303.2,646.53,303.27,646.85 L303.34,647.07 L303.52,647.51 C303.85,648.4,304.59,649.16,305.1,649.16 C305.31,649.16,305.45,649,305.45,648.78 C305.45,648.47,305.26,648.11,304.95,647.81 C304.58,647.46,304.2,647.28,303.34,647.07 L303.27,646.85 L303.55,646.9 C305.05,647.1,306.11,647.86,306.11,648.72 C306.11,649.13,305.8,649.4,305.31,649.4 C303.87,649.4,302.31,647.75,302.31,646.25 C302.31,645.45,302.85,644.89,303.62,644.89 C304.33,644.89,305.1,645.3,305.69,645.97 Z " stroke-width="0" fill="black" />

<path d="M308.64,649.84 L308.62,649.82 L308.61,649.8 L308.59,649.78 L308.58,649.76 L308.56,649.74 L308.55,649.73 L308.54,649.71 L308.53,649.69 L308.51,649.68 L308.5,649.67 L308.49,649.65 L308.48,649.64 L308.47,649.63 L308.46,649.62 L308.46,649.61 L308.45,649.6 L308.44,649.59 L308.43,649.58 L308.42,649.57 L308.42,649.56 L308.41,649.55 L308.4,649.54 L308.39,649.53 L308.37,649.51 L308.36,649.5 L308.35,649.48 L308.34,649.47 C308.21,649.34,308.1,649.27,308.03,649.27 C307.97,649.27,307.91,649.32,307.91,649.38 C307.91,649.45,307.94,649.56,307.99,649.7 C307.99,649.72,308.01,649.77,308.02,649.83 V649.85 L308.03,649.86 L308.68,652.24 L308.66,652.25 C307.91,652.11,307.77,652.09,307.48,652.07 V651.95 C307.87,651.94,307.95,651.92,307.95,651.77 C307.95,651.72,307.92,651.59,307.88,651.45 L307.52,650.15 C307.41,649.72,307.36,649.49,307.36,649.34 C307.36,649.07,307.48,648.92,307.7,648.92 C308.04,648.92,308.31,649.14,308.73,649.76 Z " stroke-width="0" fill="black" />

<path d="M308.58,653.82 L308.56,653.82 L308.54,653.82 L308.52,653.82 L308.51,653.81 L308.49,653.81 L308.47,653.8 L308.46,653.8 L308.44,653.79 L308.42,653.78 L308.41,653.77 L308.39,653.77 L308.38,653.76 L308.37,653.74 L308.35,653.73 L308.34,653.72 L308.33,653.71 L308.32,653.69 L308.31,653.68 L308.3,653.67 L308.29,653.65 L308.28,653.64 L308.27,653.62 L308.26,653.6 L308.26,653.58 L308.25,653.57 L308.25,653.55 L308.24,653.53 L308.24,653.51 L308.23,653.49 L308.23,653.47 L308.23,653.45 L308.23,653.43 C308.23,653.2,308.37,653.04,308.59,653.04 C308.78,653.04,308.95,653.21,308.95,653.42 C308.95,653.63,308.78,653.82,308.58,653.82 Z " stroke-width="0" fill="black" />

<path d="M312.05,649.8 L311.94,649.61 C311.81,649.38,311.72,649.3,311.61,649.3 C311.45,649.3,311.3,649.55,311.01,650.25 C310.98,650.35,310.86,650.61,310.74,650.9 C311.82,651.87,312.05,652.02,312.4,652.04 V652.16 H311.05 V652.04 H311.17 C311.35,652.04,311.45,651.98,311.45,651.91 C311.45,651.76,311.09,651.4,310.4,650.87 C310.3,650.79,310.21,650.72,310.08,650.63 L310.97,654 L310.93,654.03 C310.5,653.94,310.21,653.89,309.78,653.84 V653.72 C310.14,653.73,310.28,653.68,310.28,653.53 C310.27,653.41,310.21,653.21,310.12,652.87 C310.09,652.77,310.07,652.69,310.05,652.63 L310.04,652.56 L309.1,649 H309.66 L310.01,650.33 L310.32,650.56 C310.44,650.24,310.63,649.79,310.76,649.52 C311,649.06,311.13,648.92,311.34,648.92 C311.64,648.92,311.83,649.1,312.16,649.72 Z " stroke-width="0" fill="black" />

<path d="M313.41,650.84 L313.41,650.86 L313.41,650.88 L313.41,650.9 L313.41,650.92 L313.4,650.94 L313.4,650.96 L313.39,650.98 L313.38,651 L313.38,651.01 L313.37,651.03 L313.36,651.05 L313.35,651.06 L313.34,651.08 L313.32,651.09 L313.31,651.11 L313.3,651.12 L313.29,651.13 L313.27,651.14 L313.26,651.16 L313.24,651.17 L313.23,651.18 L313.21,651.19 L313.19,651.2 L313.17,651.2 L313.16,651.21 L313.14,651.22 L313.12,651.22 L313.1,651.23 L313.08,651.23 L313.06,651.23 L313.04,651.23 L313.02,651.23 C312.81,651.23,312.63,651.06,312.63,650.84 C312.63,650.63,312.81,650.45,313.02,650.45 C313.24,650.45,313.41,650.63,313.41,650.84 Z " stroke-width="0" fill="black" />

<path d="M314.89,649 L314.93,649.11 L314.96,649.22 L314.99,649.33 L315.02,649.43 L315.05,649.52 L315.08,649.61 L315.11,649.7 L315.14,649.78 L315.17,649.86 L315.19,649.94 L315.22,650.01 L315.24,650.08 L315.26,650.14 L315.29,650.21 L315.31,650.27 L315.33,650.33 L315.36,650.38 L315.38,650.44 L315.42,650.54 L315.47,650.64 L315.52,650.74 L315.57,650.83 L315.62,650.93 L315.68,651.03 L315.71,651.08 L315.74,651.13 C315.98,651.54,316.19,651.77,316.32,651.77 C316.36,651.77,316.39,651.74,316.43,651.67 C316.49,651.54,316.55,651.51,316.7,651.51 C316.91,651.51,317.04,651.64,317.04,651.87 C317.04,652.1,316.9,652.25,316.69,652.25 C316.52,652.25,316.32,652.14,316.13,651.94 C315.83,651.63,315.54,651.2,315.41,650.9 L315.31,650.64 L315.7,652.24 L315.68,652.25 C315.14,652.16,315.08,652.14,314.54,652.05 V651.93 C314.71,651.97,314.74,651.97,314.79,651.97 C314.95,651.97,315.05,651.89,315.05,651.76 C315.05,651.65,315.05,651.65,314.93,651.15 L314.33,649 Z " stroke-width="0" fill="black" />

<path d="M322.59,646.16 L322.57,646.13 L322.55,646.11 L322.52,646.08 L322.5,646.05 L322.48,646.02 L322.46,646 L322.42,645.95 L322.38,645.9 L322.34,645.85 L322.3,645.81 L322.27,645.77 L322.23,645.73 L322.2,645.7 L322.17,645.66 L322.15,645.63 L322.12,645.6 L322.09,645.58 L322.07,645.55 L322.04,645.53 L322.02,645.51 L322,645.49 L321.98,645.47 L321.96,645.46 L321.94,645.44 L321.92,645.43 L321.91,645.42 L321.89,645.41 L321.87,645.4 L321.86,645.4 L321.84,645.39 L321.83,645.39 L321.81,645.38 L321.8,645.38 L321.78,645.38 L321.77,645.38 C321.7,645.38,321.66,645.44,321.66,645.55 C321.66,645.61,321.66,645.61,321.84,646.32 L322.63,649.3 H321.89 C321.33,647.76,321.26,647.6,320.8,646.87 C320.2,645.93,319.71,645.42,319.39,645.42 C319.27,645.42,319.19,645.52,319.19,645.67 C319.19,645.71,319.19,645.73,319.2,645.76 L320.1,649.38 L320.07,649.4 C319.5,649.27,319.14,649.2,318.58,649.12 V648.98 C318.96,648.98,318.98,648.98,319.07,648.93 C319.12,648.91,319.18,648.82,319.18,648.75 C319.18,648.67,319.12,648.42,319.04,648.08 L318.67,646.66 C318.49,645.96,318.42,645.62,318.42,645.44 C318.42,645.08,318.6,644.89,318.95,644.89 C319.65,644.89,320.18,645.43,321.33,647.35 C321.04,646.28,320.88,645.6,320.88,645.39 C320.88,645.09,321.06,644.91,321.36,644.91 C321.82,644.91,322.05,645.11,322.73,646.07 Z " stroke-width="0" fill="black" />

<path d="M326.05,644.8 L325.94,644.61 C325.81,644.38,325.72,644.3,325.61,644.3 C325.45,644.3,325.3,644.55,325.01,645.25 C324.98,645.35,324.86,645.61,324.74,645.9 C325.82,646.87,326.05,647.02,326.4,647.04 V647.16 H325.05 V647.04 H325.17 C325.35,647.04,325.45,646.98,325.45,646.91 C325.45,646.76,325.09,646.4,324.4,645.87 C324.3,645.79,324.21,645.72,324.08,645.63 L324.97,649 L324.93,649.03 C324.5,648.94,324.21,648.89,323.78,648.84 V648.72 C324.14,648.73,324.28,648.68,324.28,648.53 C324.27,648.41,324.21,648.21,324.12,647.87 C324.09,647.77,324.07,647.69,324.05,647.63 L324.04,647.56 L323.1,644 H323.66 L324.01,645.33 L324.32,645.56 C324.44,645.24,324.63,644.79,324.76,644.52 C325,644.06,325.13,643.92,325.34,643.92 C325.64,643.92,325.83,644.1,326.16,644.72 Z " stroke-width="0" fill="black" />

<path d="M329.3,642.61 L329.3,642.61 L329.3,642.62 L329.3,642.62 L329.3,642.63 L329.3,642.63 L329.29,642.63 L329.29,642.64 L329.29,642.64 L329.29,642.64 L329.29,642.65 L329.29,642.65 L329.28,642.66 L329.28,642.66 L329.28,642.67 L329.27,642.67 L329.27,642.68 L329.26,642.69 L329.26,642.69 L329.25,642.7 L329.25,642.7 L329.25,642.71 L329.24,642.71 L329.24,642.71 L329.23,642.72 L329.23,642.72 L329.23,642.73 L329.22,642.73 L329.22,642.74 L329.21,642.74 L329.21,642.75 L329.2,642.75 L329.2,642.76 L329.19,642.77 L329.18,642.77 L329.18,642.78 L329.17,642.78 L329.17,642.79 L329.16,642.8 L329.15,642.81 L329.14,642.81 L329.14,642.82 L329.13,642.83 C327.88,644.08,327.56,645.97,327.56,647.49 C327.56,649.22,327.94,650.96,329.17,652.2 C329.3,652.32,329.3,652.34,329.3,652.37 C329.3,652.44,329.26,652.47,329.2,652.47 C329.1,652.47,328.2,651.79,327.61,650.53 C327.11,649.43,326.98,648.33,326.98,647.49 C326.98,646.72,327.1,645.51,327.64,644.38 C328.24,643.16,329.1,642.51,329.2,642.51 C329.26,642.51,329.3,642.54,329.3,642.61 Z " stroke-width="0" fill="black" />

<path d="M331.21,645 L331.25,645.16 L331.3,645.3 L331.34,645.44 L331.39,645.58 L331.43,645.71 L331.47,645.83 L331.5,645.95 L331.54,646.06 L331.57,646.16 L331.61,646.27 L331.64,646.36 L331.68,646.46 L331.71,646.54 L331.74,646.63 L331.77,646.71 L331.8,646.79 L331.83,646.87 L331.86,646.94 L331.92,647.08 L331.99,647.22 L332.05,647.35 L332.12,647.48 L332.19,647.61 L332.27,647.74 L332.31,647.81 L332.35,647.88 C332.68,648.44,332.96,648.75,333.13,648.75 C333.19,648.75,333.24,648.71,333.29,648.6 C333.37,648.44,333.45,648.39,333.64,648.39 C333.93,648.39,334.11,648.57,334.11,648.88 C334.11,649.18,333.91,649.4,333.64,649.4 C333.41,649.4,333.14,649.24,332.88,648.98 C332.47,648.56,332.07,647.97,331.91,647.57 L331.77,647.21 L332.3,649.38 L332.27,649.4 C331.54,649.27,331.45,649.24,330.73,649.12 V648.96 C330.96,649,331,649,331.07,649 C331.29,649,331.41,648.91,331.41,648.73 C331.41,648.59,331.41,648.59,331.25,647.91 L330.45,645 Z " stroke-width="0" fill="black" />

<path d="M336.88,647.49 L336.88,647.57 L336.88,647.64 L336.88,647.72 L336.87,647.8 L336.87,647.97 L336.85,648.15 L336.84,648.33 L336.82,648.52 L336.79,648.72 L336.76,648.91 L336.72,649.12 L336.67,649.33 L336.62,649.54 L336.56,649.75 L336.49,649.96 L336.41,650.17 L336.37,650.28 L336.32,650.39 L336.27,650.49 L336.22,650.6 C335.62,651.82,334.77,652.47,334.67,652.47 C334.61,652.47,334.57,652.43,334.57,652.37 C334.57,652.34,334.57,652.32,334.76,652.15 C335.73,651.16,336.3,649.57,336.3,647.49 C336.3,645.78,335.93,644.03,334.7,642.78 C334.57,642.66,334.57,642.64,334.57,642.61 C334.57,642.55,334.61,642.51,334.67,642.51 C334.77,642.51,335.66,643.19,336.25,644.45 C336.76,645.55,336.88,646.65,336.88,647.49 Z " stroke-width="0" fill="black" />

</g>

</svg>

