<?xml version="1.0" encoding="ISO-8859-1" standalone="no"?>

<!-- \vec{E} = - \nabla V - \frac{\partial \vec{A}}{\partial t} -->

<!DOCTYPE svg PUBLIC "-//W3C//DTD SVG 1.1//EN" "http://www.w3.org/Graphics/SVG/1.1/DTD/svg11.dtd">

<svg version="1.1" baseProfile="full" id="body" width="4in" height="1.47058823529in" viewBox="0 0 68 25" preserveAspectRatio="none" xmlns="http://www.w3.org/2000/svg" xmlns:xlink="http://www.w3.org/1999/xlink" xmlns:ev="http://www.w3.org/2001/xml-events">
<title>SVG drawing</title>

<desc>This was produced by version 4.4 of GNU libplot, a free library for exporting 2-D vector graphics.</desc>

<g id="content" transform="scale(1,-1) translate(-272,-657)" xml:space="preserve" stroke="black" stroke-linecap="butt" stroke-linejoin="miter" stroke-miterlimit="10.433" stroke-dasharray="none" stroke-dashoffset="0" stroke-opacity="1" fill="none" fill-rule="evenodd" fill-opacity="1" font-style="normal" font-variant="normal" font-weight="normal" font-stretch="normal" font-size-adjust="none" letter-spacing="normal" word-spacing="normal" text-anchor="start">
<path d="M278.35,647.93 L278.34,647.92 L278.32,647.9 L278.31,647.89 L278.29,647.87 L278.27,647.86 L278.26,647.84 L278.24,647.82 L278.22,647.81 L278.2,647.79 L278.18,647.77 L278.14,647.73 L278.1,647.69 L278.06,647.65 L278.05,647.63 L278.03,647.61 L278.01,647.59 L277.99,647.57 L277.98,647.55 L277.96,647.53 L277.95,647.51 L277.94,647.49 L277.92,647.47 L277.91,647.45 L277.91,647.43 L277.9,647.41 L277.89,647.39 L277.89,647.37 L277.88,647.36 L277.88,647.34 C277.88,647.24,277.98,647.14,278.08,647.14 C278.17,647.14,278.22,647.21,278.27,647.27 C278.39,647.42,278.62,647.7,279.06,647.92 C279.13,647.96,279.23,648.01,279.23,648.13 C279.23,648.23,279.16,648.28,279.09,648.33 C278.87,648.48,278.76,648.66,278.68,648.9 C278.66,648.98,278.62,649.11,278.48,649.11 C278.34,649.11,278.28,648.98,278.28,648.9 C278.28,648.85,278.36,648.53,278.52,648.33 H275.16 C274.99,648.33,274.81,648.33,274.81,648.13 C274.81,647.93,274.99,647.93,275.16,647.93 Z " stroke-width="0" fill="black" />

<path d="M279.32,646.5 H274.36 V646.35 C274.98,646.28,275.13,646.21,275.13,645.94 C275.13,645.83,275.07,645.48,275.02,645.3 L273.8,640.9 C273.63,640.33,273.55,640.26,272.99,640.16 V640 H278.04 L278.66,641.61 L278.5,641.7 C278.03,641.05,277.77,640.8,277.34,640.6 C276.98,640.43,276.3,640.33,275.55,640.33 C274.99,640.33,274.75,640.43,274.75,640.67 C274.75,640.78,274.86,641.25,275.11,642.12 C275.24,642.56,275.33,642.89,275.43,643.27 C275.78,643.25,276.09,643.24,276.21,643.24 C276.6,643.25,276.88,643.19,276.98,643.09 C277.04,643.04,277.05,642.95,277.05,642.78 C277.05,642.61,277.04,642.48,276.98,642.26 L277.18,642.21 L277.86,644.52 L277.68,644.56 C277.3,643.72,277.21,643.66,276.31,643.62 C276.19,643.62,275.87,643.6,275.52,643.6 L276.18,645.92 C276.24,646.14,276.35,646.18,276.91,646.18 C278.47,646.18,278.82,646.05,278.82,645.45 C278.82,645.32,278.81,645.17,278.8,645 L279.01,644.98 Z " stroke-width="0" fill="black" />

<path d="M288.84,643.26 L288.87,643.26 L288.9,643.26 L288.93,643.26 L288.94,643.26 L288.96,643.26 L288.97,643.26 L288.99,643.26 L289,643.27 L289.02,643.27 L289.03,643.27 L289.04,643.27 L289.06,643.28 L289.07,643.28 L289.08,643.29 L289.09,643.29 L289.1,643.3 L289.12,643.31 L289.13,643.31 L289.13,643.32 L289.14,643.33 L289.15,643.34 L289.16,643.35 L289.16,643.35 L289.16,643.36 L289.17,643.36 L289.17,643.37 L289.17,643.38 L289.17,643.38 L289.18,643.39 L289.18,643.4 L289.18,643.41 L289.18,643.41 L289.18,643.42 L289.18,643.43 L289.18,643.44 L289.18,643.45 L289.18,643.46 C289.18,643.66,288.99,643.66,288.86,643.66 H282.89 C282.75,643.66,282.56,643.66,282.56,643.46 C282.56,643.26,282.75,643.26,282.9,643.26 Z " stroke-width="0" fill="black" />

<path d="M288.86,641.32 L288.87,641.32 L288.88,641.32 L288.91,641.32 L288.94,641.33 L288.95,641.33 L288.96,641.33 L288.98,641.33 L288.99,641.33 L289.01,641.33 L289.02,641.33 L289.03,641.34 L289.05,641.34 L289.06,641.34 L289.07,641.35 L289.08,641.35 L289.09,641.36 L289.11,641.37 L289.12,641.37 L289.13,641.38 L289.14,641.39 L289.14,641.4 L289.15,641.4 L289.15,641.41 L289.16,641.41 L289.16,641.42 L289.16,641.42 L289.17,641.43 L289.17,641.44 L289.17,641.44 L289.17,641.45 L289.18,641.46 L289.18,641.46 L289.18,641.47 L289.18,641.48 L289.18,641.49 L289.18,641.5 L289.18,641.5 L289.18,641.51 L289.18,641.52 C289.18,641.72,288.99,641.72,288.84,641.72 H282.9 C282.75,641.72,282.56,641.72,282.56,641.52 C282.56,641.32,282.75,641.32,282.89,641.32 Z " stroke-width="0" fill="black" />

<path d="M298.57,642.29 L298.6,642.29 L298.63,642.29 L298.66,642.29 L298.68,642.3 L298.69,642.3 L298.71,642.3 L298.72,642.3 L298.74,642.3 L298.75,642.3 L298.76,642.31 L298.78,642.31 L298.79,642.31 L298.8,642.32 L298.82,642.32 L298.83,642.33 L298.84,642.33 L298.85,642.34 L298.86,642.35 L298.87,642.36 L298.88,642.37 L298.88,642.38 L298.89,642.38 L298.89,642.39 L298.89,642.39 L298.9,642.4 L298.9,642.41 L298.9,642.41 L298.9,642.42 L298.91,642.43 L298.91,642.43 L298.91,642.44 L298.91,642.45 L298.91,642.46 L298.91,642.47 L298.91,642.47 L298.91,642.48 L298.91,642.49 C298.91,642.69,298.73,642.69,298.57,642.69 H293.18 C293.01,642.69,292.83,642.69,292.83,642.49 C292.83,642.29,293.01,642.29,293.18,642.29 Z " stroke-width="0" fill="black" />

<polygon points="306.79,646.84 306.08,646.34 303.75,641.77 301.64,646.35 306.08,646.34 306.79,646.84 300.36,646.84 303.38,640 " stroke-width="0" fill="black" />

<path d="M313.86,646.5 H312 V646.35 C312.45,646.3,312.63,646.2,312.63,646.01 C312.63,645.82,312.44,645.39,312.11,644.82 L310.06,641.27 L309.4,645.69 C309.39,645.74,309.39,645.78,309.39,645.84 C309.39,646.18,309.53,646.28,310.16,646.35 V646.5 H307.76 V646.35 C308.32,646.28,308.34,646.25,308.54,645 L309.39,639.82 H309.58 L313.3,645.95 C313.46,646.22,313.62,646.34,313.86,646.35 Z " stroke-width="0" fill="black" />

<path d="M321.57,642.29 L321.6,642.29 L321.63,642.29 L321.66,642.29 L321.68,642.3 L321.69,642.3 L321.71,642.3 L321.72,642.3 L321.74,642.3 L321.75,642.3 L321.76,642.31 L321.78,642.31 L321.79,642.31 L321.8,642.32 L321.82,642.32 L321.83,642.33 L321.84,642.33 L321.85,642.34 L321.86,642.35 L321.87,642.36 L321.88,642.37 L321.88,642.38 L321.89,642.38 L321.89,642.39 L321.89,642.39 L321.9,642.4 L321.9,642.41 L321.9,642.41 L321.9,642.42 L321.91,642.43 L321.91,642.43 L321.91,642.44 L321.91,642.45 L321.91,642.46 L321.91,642.47 L321.91,642.47 L321.91,642.48 L321.91,642.49 C321.91,642.69,321.73,642.69,321.57,642.69 H316.18 C316.01,642.69,315.83,642.69,315.83,642.49 C315.83,642.29,316.01,642.29,316.18,642.29 Z " stroke-width="0" fill="black" />

<path d="M327.07,653.72 L327.11,653.74 L327.15,653.76 L327.19,653.78 L327.23,653.79 L327.27,653.81 L327.31,653.83 L327.35,653.85 L327.38,653.86 L327.42,653.88 L327.46,653.89 L327.53,653.92 L327.6,653.94 L327.67,653.96 L327.73,653.98 L327.8,653.99 L327.86,654.01 L327.93,654.02 L327.99,654.03 L328.06,654.03 L328.12,654.03 L328.18,654.03 C329.19,654.03,329.78,653.09,329.78,651.47 C329.78,651.18,329.76,650.95,329.71,650.45 L329.56,650.19 C329.61,650.15,329.61,650.15,329.64,650.11 H329.64 C329.49,649,329.39,648.57,329.13,648.07 C328.87,647.54,328.44,647.21,328,647.21 C327.46,647.21,327.12,647.74,327.12,648.59 C327.12,649.72,327.79,650.66,328.6,650.66 C328.94,650.66,329.24,650.52,329.56,650.19 L329.71,650.45 C329.07,650.95,328.71,651.1,328.2,651.1 C327.71,651.1,327.3,650.93,326.95,650.53 C326.51,650.08,326.26,649.45,326.26,648.83 C326.26,647.76,327.09,646.9,328.12,646.9 C328.81,646.9,329.4,647.23,329.82,647.84 C330.27,648.52,330.6,649.85,330.6,651 C330.6,653,329.46,654.5,327.94,654.5 C327.55,654.5,327.21,654.42,326.66,654.22 Z " stroke-width="0" fill="black" />

<path d="M335.35,654.93 L335.34,654.92 L335.32,654.9 L335.31,654.89 L335.29,654.87 L335.27,654.86 L335.26,654.84 L335.24,654.82 L335.22,654.81 L335.2,654.79 L335.18,654.77 L335.14,654.73 L335.1,654.69 L335.06,654.65 L335.05,654.63 L335.03,654.61 L335.01,654.59 L334.99,654.57 L334.98,654.55 L334.96,654.53 L334.95,654.51 L334.94,654.49 L334.92,654.47 L334.91,654.45 L334.91,654.43 L334.9,654.41 L334.89,654.39 L334.89,654.37 L334.88,654.36 L334.88,654.34 C334.88,654.24,334.98,654.14,335.08,654.14 C335.17,654.14,335.22,654.21,335.27,654.27 C335.39,654.42,335.62,654.7,336.06,654.92 C336.13,654.96,336.23,655.01,336.23,655.13 C336.23,655.23,336.16,655.28,336.09,655.33 C335.87,655.48,335.76,655.66,335.68,655.9 C335.66,655.98,335.62,656.11,335.48,656.11 C335.34,656.11,335.28,655.98,335.28,655.9 C335.28,655.85,335.36,655.53,335.52,655.33 H332.16 C331.99,655.33,331.81,655.33,331.81,655.13 C331.81,654.93,331.99,654.93,332.16,654.93 Z " stroke-width="0" fill="black" />

<path d="M336.62,647.16 L336.57,647.16 L336.52,647.17 L336.47,647.18 L336.43,647.18 L336.39,647.19 L336.35,647.2 L336.31,647.2 L336.28,647.21 L336.25,647.22 L336.22,647.23 L336.19,647.25 L336.16,647.26 L336.14,647.28 L336.12,647.29 L336.1,647.31 L336.08,647.33 L336.06,647.36 L336.04,647.38 L336.02,647.41 L336.01,647.44 L335.99,647.47 L335.98,647.51 L335.97,647.54 L335.96,647.58 L335.94,647.63 L335.93,647.67 L335.92,647.72 L335.91,647.77 L335.9,647.8 L335.9,647.83 L335.89,647.86 L335.89,647.89 L335.88,647.92 L335.87,647.95 L335.87,647.98 L335.86,648.02 L334.93,653.66 H334.67 L331.78,648.67 C330.99,647.35,330.89,647.24,330.49,647.16 V647 H332.36 V647.16 C331.85,647.21,331.77,647.26,331.77,647.51 C331.77,647.7,331.8,647.78,331.96,648.12 L332.54,649.25 H334.73 L334.68,649.61 H332.74 L334.24,652.2 L334.68,649.61 L334.73,649.25 L334.93,647.95 C334.93,647.85,334.95,647.77,334.95,647.69 C334.95,647.31,334.8,647.22,334.17,647.16 V647 H336.62 Z " stroke-width="0" fill="black" />

<line x1="325.71" y1="642.58" x2="336.73" y2="642.58" stroke-width="0.405" />

<path d="M328.07,639.72 L328.11,639.74 L328.15,639.76 L328.19,639.78 L328.23,639.79 L328.27,639.81 L328.31,639.83 L328.35,639.85 L328.38,639.86 L328.42,639.88 L328.46,639.89 L328.53,639.92 L328.6,639.94 L328.67,639.96 L328.73,639.98 L328.8,639.99 L328.86,640.01 L328.93,640.02 L328.99,640.03 L329.06,640.03 L329.12,640.03 L329.18,640.03 C330.19,640.03,330.78,639.09,330.78,637.47 C330.78,637.18,330.76,636.95,330.71,636.45 L330.56,636.19 C330.61,636.15,330.61,636.15,330.64,636.11 H330.64 C330.49,635,330.39,634.57,330.13,634.07 C329.87,633.54,329.44,633.21,329,633.21 C328.46,633.21,328.12,633.74,328.12,634.59 C328.12,635.72,328.79,636.66,329.6,636.66 C329.94,636.66,330.24,636.52,330.56,636.19 L330.71,636.45 C330.07,636.95,329.71,637.1,329.2,637.1 C328.71,637.1,328.3,636.93,327.95,636.53 C327.51,636.08,327.26,635.45,327.26,634.83 C327.26,633.76,328.09,632.9,329.12,632.9 C329.81,632.9,330.4,633.23,330.82,633.84 C331.27,634.52,331.6,635.85,331.6,637 C331.6,639,330.46,640.5,328.94,640.5 C328.55,640.5,328.21,640.42,327.66,640.22 Z " stroke-width="0" fill="black" />

<path d="M334.95,637.27 H334.15 L334.43,638.29 C334.44,638.31,334.44,638.33,334.44,638.34 C334.44,638.41,334.41,638.44,334.36,638.44 C334.3,638.44,334.27,638.43,334.21,638.35 C333.82,637.84,333.21,637.34,332.89,637.25 C332.64,637.18,332.57,637.11,332.57,637 C332.57,637,332.57,636.98,332.58,636.95 H333.32 L332.6,634.21 C332.58,634.12,332.57,634.09,332.54,634 C332.45,633.7,332.37,633.35,332.37,633.27 C332.37,633.05,332.58,632.89,332.85,632.89 C333.3,632.89,333.63,633.17,334.26,634.1 L334.13,634.16 C333.64,633.54,333.48,633.38,333.32,633.38 C333.23,633.38,333.18,633.46,333.18,633.58 C333.18,633.59,333.18,633.6,333.19,633.63 L334.06,636.95 H334.9 Z " stroke-width="0" fill="black" />

</g>

</svg>

