<?xml version="1.0" encoding="ISO-8859-1" standalone="no"?>

<!-- R_{\mu \nu}-\frac{1}{2}Rg_{\mu \nu}=8\pi GT_{\mu \nu}
 -->

<!DOCTYPE svg PUBLIC "-//W3C//DTD SVG 1.1//EN" "http://www.w3.org/Graphics/SVG/1.1/DTD/svg11.dtd">

<svg version="1.1" baseProfile="full" id="body" width="4in" height="0.916666666667in" viewBox="0 0 96 22" preserveAspectRatio="none" xmlns="http://www.w3.org/2000/svg" xmlns:xlink="http://www.w3.org/1999/xlink" xmlns:ev="http://www.w3.org/2001/xml-events">
<title>SVG drawing</title>

<desc>This was produced by version 4.4 of GNU libplot, a free library for exporting 2-D vector graphics.</desc>

<g id="content" transform="scale(1,-1) translate(-258,-657)" xml:space="preserve" stroke="black" stroke-linecap="butt" stroke-linejoin="miter" stroke-miterlimit="10.433" stroke-dasharray="none" stroke-dashoffset="0" stroke-opacity="1" fill="none" fill-rule="evenodd" fill-opacity="1" font-style="normal" font-variant="normal" font-weight="normal" font-stretch="normal" font-size-adjust="none" letter-spacing="normal" word-spacing="normal" text-anchor="start">
<path d="M264.65,643.16 L264.61,643.16 L264.57,643.17 L264.53,643.17 L264.49,643.18 L264.46,643.18 L264.43,643.19 L264.39,643.2 L264.36,643.21 L264.33,643.22 L264.3,643.23 L264.27,643.25 L264.24,643.26 L264.22,643.28 L264.19,643.3 L264.17,643.31 L264.14,643.33 L264.12,643.36 L264.1,643.38 L264.07,643.4 L264.05,643.43 L264.03,643.46 L264.01,643.49 L263.99,643.52 L263.97,643.55 L263.95,643.58 L263.93,643.62 L263.91,643.66 L263.89,643.7 L263.87,643.74 L263.86,643.78 L263.84,643.83 L263.82,643.88 L262.89,646.32 C263.66,646.49,263.99,646.62,264.35,646.95 C264.68,647.23,264.86,647.62,264.86,648.07 C264.86,649,264.12,649.5,262.79,649.5 L262.58,649.21 C263.4,649.21,263.81,648.83,263.81,648.09 C263.81,647.1,263.18,646.6,261.93,646.6 C261.77,646.6,261.66,646.6,261.42,646.65 L262.07,648.93 C262.13,649.14,262.26,649.21,262.58,649.21 L262.79,649.5 H260.32 V649.35 C260.73,649.28,260.79,649.28,260.88,649.21 C260.96,649.16,261.02,649.04,261.02,648.93 C261.02,648.81,260.97,648.57,260.9,648.3 L259.68,643.9 C259.5,643.31,259.43,643.25,258.87,643.16 V643 H261.3 V643.16 C260.7,643.24,260.62,643.29,260.62,643.62 C260.62,643.72,260.65,643.85,260.74,644.2 L261.3,646.28 L261.95,646.23 L263.18,643 H264.65 Z " stroke-width="0" fill="black" />

<path d="M268.66,644.16 H268.02 L267.48,641.85 C267.22,641.52,266.89,641.33,266.58,641.33 C266.27,641.33,266.07,641.53,266.07,641.84 C266.07,641.91,266.08,642.01,266.09,642.06 L266.59,644.16 H265.94 L265.31,641.4 C265.27,641.2,265.19,640.99,265.06,640.66 C264.84,640.23,264.78,640.05,264.78,639.79 C264.78,639.57,264.86,639.46,265.03,639.46 C265.35,639.46,265.55,639.87,265.55,640.51 C265.55,640.58,265.55,640.71,265.55,640.82 C265.54,640.96,265.54,641.05,265.54,641.13 C265.54,641.25,265.55,641.33,265.55,641.49 C265.69,641.1,265.92,640.93,266.31,640.93 C266.7,640.93,267.06,641.13,267.45,641.59 C267.43,641.49,267.42,641.43,267.42,641.36 C267.42,641.07,267.56,640.93,267.84,640.93 C268.12,640.93,268.32,641.03,268.63,641.35 L268.65,641.41 C268.46,641.27,268.36,641.22,268.24,641.22 C268.11,641.22,268.04,641.29,268.04,641.43 C268.04,641.5,268.04,641.52,268.09,641.68 Z " stroke-width="0" fill="black" />

<path d="M268.93,644.38 L268.95,644.38 L268.97,644.38 L269.01,644.38 L269.04,644.38 L269.07,644.38 L269.1,644.38 L269.13,644.38 L269.16,644.37 L269.18,644.37 L269.2,644.37 L269.23,644.36 L269.25,644.36 L269.27,644.35 L269.28,644.34 L269.3,644.33 L269.32,644.32 L269.33,644.31 L269.35,644.3 L269.36,644.29 L269.37,644.27 L269.38,644.26 L269.4,644.24 L269.41,644.22 L269.42,644.2 L269.43,644.18 L269.45,644.15 L269.46,644.13 L269.47,644.1 L269.49,644.07 L269.49,644.05 L269.5,644.03 L269.51,644.01 L269.52,644 L269.52,643.98 L269.53,643.96 L269.54,643.94 L269.55,643.92 L270.73,640.9 H270.95 C271.11,641.31,271.12,641.32,271.31,641.7 C271.36,641.8,271.4,641.91,271.45,642 L271.88,642.81 C272.32,643.63,272.5,644.07,272.5,644.34 C272.5,644.58,272.31,644.78,272.07,644.78 C271.87,644.78,271.68,644.59,271.68,644.37 C271.68,644.32,271.69,644.3,271.76,643.96 C271.79,643.77,271.81,643.66,271.81,643.58 C271.81,643.39,271.75,643.2,271.57,642.88 L271.06,641.89 L269.92,644.78 C269.59,644.67,269.29,644.61,268.93,644.6 Z " stroke-width="0" fill="black" />

<path d="M280.57,645.29 L280.6,645.29 L280.63,645.29 L280.66,645.29 L280.68,645.3 L280.69,645.3 L280.71,645.3 L280.72,645.3 L280.74,645.3 L280.75,645.3 L280.76,645.31 L280.78,645.31 L280.79,645.31 L280.8,645.32 L280.82,645.32 L280.83,645.33 L280.84,645.33 L280.85,645.34 L280.86,645.35 L280.87,645.36 L280.88,645.37 L280.88,645.38 L280.89,645.38 L280.89,645.39 L280.89,645.39 L280.9,645.4 L280.9,645.41 L280.9,645.41 L280.9,645.42 L280.91,645.43 L280.91,645.43 L280.91,645.44 L280.91,645.45 L280.91,645.46 L280.91,645.47 L280.91,645.47 L280.91,645.48 L280.91,645.49 C280.91,645.69,280.73,645.69,280.57,645.69 H275.18 C275.01,645.69,274.83,645.69,274.83,645.49 C274.83,645.29,275.01,645.29,275.18,645.29 Z " stroke-width="0" fill="black" />

<path d="M287.9,656.73 L286.11,655.83 V655.69 C286.23,655.74,286.34,655.78,286.38,655.8 C286.55,655.87,286.72,655.91,286.82,655.91 C287.03,655.91,287.12,655.76,287.12,655.44 V650.93 C287.12,650.6,287.04,650.37,286.88,650.28 C286.73,650.19,286.59,650.16,286.18,650.15 V650 H288.93 V650.15 C288.14,650.16,287.98,650.26,287.98,650.74 V656.72 Z " stroke-width="0" fill="black" />

<line x1="284.58" y1="645.32" x2="289.57" y2="645.32" stroke-width="0.405" />

<path d="M289.73,637.36 L289.6,637.41 C289.23,636.85,289.11,636.76,288.66,636.76 H286.27 L287.95,638.51 C288.84,639.44,289.22,640.2,289.22,640.97 C289.22,641.97,288.42,642.73,287.38,642.73 C286.83,642.73,286.32,642.52,285.95,642.12 C285.63,641.78,285.48,641.46,285.31,640.75 L285.52,640.7 C285.92,641.68,286.27,642,286.96,642 C287.8,642,288.37,641.43,288.37,640.59 C288.37,639.82,287.91,638.89,287.07,638 L285.3,636.12 V636 H289.18 Z " stroke-width="0" fill="black" />

<path d="M296.65,643.16 L296.61,643.16 L296.57,643.17 L296.53,643.17 L296.49,643.18 L296.46,643.18 L296.43,643.19 L296.39,643.2 L296.36,643.21 L296.33,643.22 L296.3,643.23 L296.27,643.25 L296.24,643.26 L296.22,643.28 L296.19,643.3 L296.17,643.31 L296.14,643.33 L296.12,643.36 L296.1,643.38 L296.07,643.4 L296.05,643.43 L296.03,643.46 L296.01,643.49 L295.99,643.52 L295.97,643.55 L295.95,643.58 L295.93,643.62 L295.91,643.66 L295.89,643.7 L295.87,643.74 L295.86,643.78 L295.84,643.83 L295.82,643.88 L294.89,646.32 C295.66,646.49,295.99,646.62,296.35,646.95 C296.68,647.23,296.86,647.62,296.86,648.07 C296.86,649,296.12,649.5,294.79,649.5 L294.58,649.21 C295.4,649.21,295.81,648.83,295.81,648.09 C295.81,647.1,295.18,646.6,293.93,646.6 C293.77,646.6,293.66,646.6,293.42,646.65 L294.07,648.93 C294.13,649.14,294.26,649.21,294.58,649.21 L294.79,649.5 H292.32 V649.35 C292.73,649.28,292.79,649.28,292.88,649.21 C292.96,649.16,293.02,649.04,293.02,648.93 C293.02,648.81,292.97,648.57,292.9,648.3 L291.68,643.9 C291.5,643.31,291.43,643.25,290.87,643.16 V643 H293.3 V643.16 C292.7,643.24,292.62,643.29,292.62,643.62 C292.62,643.72,292.65,643.85,292.74,644.2 L293.3,646.28 L293.95,646.23 L295.18,643 H296.65 Z " stroke-width="0" fill="black" />

<path d="M301.7,647.03 H301.09 C301.07,647.03,301.02,647.05,300.93,647.11 C300.67,647.29,300.34,647.4,299.96,647.4 L299.95,647.18 C300.32,647.18,300.51,646.93,300.51,646.47 C300.51,646.12,300.39,645.68,300.2,645.34 C299.98,644.93,299.67,644.72,299.33,644.72 C298.95,644.72,298.73,644.99,298.73,645.46 C298.73,646.38,299.3,647.18,299.95,647.18 H299.95 L299.96,647.4 C298.85,647.4,297.96,646.62,297.96,645.69 C297.96,645.17,298.18,644.87,298.74,644.61 C298.16,644.22,297.98,644.02,297.98,643.78 C297.98,643.65,298.05,643.53,298.25,643.39 L298.47,643.28 C298.48,643.28,298.5,643.27,298.52,643.26 C298.55,643.25,298.65,643.22,298.81,643.17 C299.87,642.84,300.24,642.56,300.24,642.1 C300.24,641.57,299.66,641.17,298.89,641.17 C298.1,641.17,297.63,641.55,297.63,642.18 C297.63,642.42,297.69,642.59,297.85,642.78 C297.98,642.95,298.39,643.28,298.47,643.28 H298.47 L298.25,643.39 C297.26,642.74,297.08,642.54,297.08,642.08 C297.08,641.4,297.74,640.95,298.74,640.95 C300,640.95,300.84,641.53,300.84,642.4 C300.84,643.03,300.36,643.47,299.41,643.72 C298.97,643.83,298.71,643.98,298.71,644.14 C298.71,644.28,298.94,644.54,299.07,644.54 C299.09,644.54,299.11,644.54,299.14,644.53 C299.22,644.52,299.36,644.5,299.45,644.5 C300.36,644.5,301.29,645.31,301.29,646.09 C301.29,646.25,301.27,646.45,301.2,646.65 H301.7 Z " stroke-width="0" fill="black" />

<path d="M305.66,644.16 H305.02 L304.48,641.85 C304.22,641.52,303.89,641.33,303.58,641.33 C303.27,641.33,303.07,641.53,303.07,641.84 C303.07,641.91,303.08,642.01,303.09,642.06 L303.59,644.16 H302.94 L302.31,641.4 C302.27,641.2,302.19,640.99,302.06,640.66 C301.84,640.23,301.78,640.05,301.78,639.79 C301.78,639.57,301.86,639.46,302.03,639.46 C302.35,639.46,302.55,639.87,302.55,640.51 C302.55,640.58,302.55,640.71,302.55,640.82 C302.54,640.96,302.54,641.05,302.54,641.13 C302.54,641.25,302.55,641.33,302.55,641.49 C302.69,641.1,302.92,640.93,303.31,640.93 C303.7,640.93,304.06,641.13,304.45,641.59 C304.43,641.49,304.42,641.43,304.42,641.36 C304.42,641.07,304.56,640.93,304.84,640.93 C305.12,640.93,305.32,641.03,305.63,641.35 L305.65,641.41 C305.46,641.27,305.36,641.22,305.24,641.22 C305.11,641.22,305.04,641.29,305.04,641.43 C305.04,641.5,305.04,641.52,305.09,641.68 Z " stroke-width="0" fill="black" />

<path d="M305.93,644.38 L305.95,644.38 L305.97,644.38 L306.01,644.38 L306.04,644.38 L306.07,644.38 L306.1,644.38 L306.13,644.38 L306.16,644.37 L306.18,644.37 L306.2,644.37 L306.23,644.36 L306.25,644.36 L306.27,644.35 L306.28,644.34 L306.3,644.33 L306.32,644.32 L306.33,644.31 L306.35,644.3 L306.36,644.29 L306.37,644.27 L306.38,644.26 L306.4,644.24 L306.41,644.22 L306.42,644.2 L306.43,644.18 L306.45,644.15 L306.46,644.13 L306.47,644.1 L306.49,644.07 L306.49,644.05 L306.5,644.03 L306.51,644.01 L306.52,644 L306.52,643.98 L306.53,643.96 L306.54,643.94 L306.55,643.92 L307.73,640.9 H307.95 C308.11,641.31,308.12,641.32,308.31,641.7 C308.36,641.8,308.4,641.91,308.45,642 L308.88,642.81 C309.32,643.63,309.5,644.07,309.5,644.34 C309.5,644.58,309.31,644.78,309.07,644.78 C308.87,644.78,308.68,644.59,308.68,644.37 C308.68,644.32,308.69,644.3,308.76,643.96 C308.79,643.77,308.81,643.66,308.81,643.58 C308.81,643.39,308.75,643.2,308.57,642.88 L308.06,641.89 L306.92,644.78 C306.59,644.67,306.29,644.61,305.93,644.6 Z " stroke-width="0" fill="black" />

<path d="M318.84,646.26 L318.87,646.26 L318.9,646.26 L318.93,646.26 L318.94,646.26 L318.96,646.26 L318.97,646.26 L318.99,646.26 L319,646.27 L319.02,646.27 L319.03,646.27 L319.04,646.27 L319.06,646.28 L319.07,646.28 L319.08,646.29 L319.09,646.29 L319.1,646.3 L319.12,646.31 L319.13,646.31 L319.13,646.32 L319.14,646.33 L319.15,646.34 L319.16,646.35 L319.16,646.35 L319.16,646.36 L319.17,646.36 L319.17,646.37 L319.17,646.38 L319.17,646.38 L319.18,646.39 L319.18,646.4 L319.18,646.41 L319.18,646.41 L319.18,646.42 L319.18,646.43 L319.18,646.44 L319.18,646.45 L319.18,646.46 C319.18,646.66,318.99,646.66,318.86,646.66 H312.89 C312.75,646.66,312.56,646.66,312.56,646.46 C312.56,646.26,312.75,646.26,312.9,646.26 Z " stroke-width="0" fill="black" />

<path d="M318.86,644.32 L318.87,644.32 L318.88,644.32 L318.91,644.32 L318.94,644.33 L318.95,644.33 L318.96,644.33 L318.98,644.33 L318.99,644.33 L319.01,644.33 L319.02,644.33 L319.03,644.34 L319.05,644.34 L319.06,644.34 L319.07,644.35 L319.08,644.35 L319.09,644.36 L319.11,644.37 L319.12,644.37 L319.13,644.38 L319.14,644.39 L319.14,644.4 L319.15,644.4 L319.15,644.41 L319.16,644.41 L319.16,644.42 L319.16,644.42 L319.17,644.43 L319.17,644.44 L319.17,644.44 L319.17,644.45 L319.18,644.46 L319.18,644.46 L319.18,644.47 L319.18,644.48 L319.18,644.49 L319.18,644.5 L319.18,644.5 L319.18,644.51 L319.18,644.52 C319.18,644.72,318.99,644.72,318.84,644.72 H312.9 C312.75,644.72,312.56,644.72,312.56,644.52 C312.56,644.32,312.75,644.32,312.89,644.32 Z " stroke-width="0" fill="black" />

<path d="M324.89,646.7 L324.98,646.74 L325.07,646.79 L325.15,646.84 L325.23,646.89 L325.31,646.94 L325.38,646.98 L325.45,647.03 L325.51,647.08 L325.58,647.12 L325.64,647.17 L325.69,647.22 L325.74,647.26 L325.79,647.31 L325.84,647.36 L325.89,647.4 L325.93,647.45 L325.96,647.5 L326,647.55 L326.03,647.6 L326.06,647.65 L326.09,647.7 L326.11,647.75 L326.13,647.8 L326.15,647.86 L326.17,647.91 L326.18,647.96 L326.2,648.02 L326.21,648.08 L326.21,648.14 L326.22,648.2 L326.22,648.26 L326.22,648.32 C326.22,649.14,325.51,649.73,324.51,649.73 L324.43,649.46 C325.11,649.46,325.54,649.02,325.54,648.33 C325.54,647.76,325.26,647.31,324.69,646.93 C324.64,646.91,324.64,646.91,324.6,646.88 H324.6 C323.71,647.45,323.36,647.91,323.36,648.47 C323.36,649.05,323.8,649.46,324.43,649.46 L324.51,649.73 C323.43,649.73,322.62,649.07,322.62,648.16 C322.62,647.51,322.81,647.22,323.85,646.31 C322.78,645.49,322.56,645.18,322.56,644.5 C322.56,643.54,323.34,642.86,324.47,642.86 L324.58,643.14 C323.82,643.14,323.32,643.72,323.32,644.59 C323.32,645.22,323.54,645.64,324.11,646.11 L324.71,645.67 C325.44,645.15,325.68,644.79,325.68,644.23 C325.68,643.59,325.23,643.14,324.58,643.14 L324.47,642.86 C325.67,642.86,326.43,643.52,326.43,644.54 C326.43,645.31,326.09,645.8,324.89,646.7 Z " stroke-width="0" fill="black" />

<path d="M327.3,646.47 L327.33,646.52 L327.36,646.56 L327.39,646.6 L327.42,646.64 L327.44,646.68 L327.47,646.72 L327.5,646.75 L327.52,646.78 L327.55,646.81 L327.58,646.84 L327.6,646.87 L327.63,646.89 L327.65,646.92 L327.68,646.94 L327.7,646.96 L327.73,646.97 L327.76,646.99 L327.79,647.01 L327.81,647.02 L327.84,647.03 L327.87,647.04 L327.9,647.05 L327.93,647.06 L327.97,647.07 L328,647.08 L328.03,647.08 L328.07,647.08 L328.11,647.09 L328.15,647.09 L328.19,647.09 L328.23,647.09 L328.27,647.09 H328.73 L328.47,644.88 C328.43,644.6,328.3,644.39,327.96,644.07 C327.66,643.8,327.57,643.64,327.57,643.42 C327.57,643.12,327.81,642.87,328.12,642.87 C328.43,642.87,328.66,643.1,328.79,643.53 C328.88,643.78,329.02,644.8,329.11,645.81 L329.23,647.09 H330.32 C330.2,646.31,330.11,645.23,330.11,644.66 C330.11,643.55,330.49,642.87,331.09,642.87 C331.48,642.87,331.83,643.14,332.07,643.61 C332.21,643.89,332.25,644.07,332.28,644.57 H332.04 C331.99,644.1,331.8,643.85,331.47,643.85 C331.27,643.85,331.07,643.98,330.96,644.2 C330.87,644.38,330.84,644.53,330.84,644.86 C330.84,645.62,330.89,646.55,330.96,647.09 H332.21 V647.98 H328.72 C328.19,647.98,328,647.91,327.71,647.63 C327.43,647.35,327.27,647.07,327.1,646.47 Z " stroke-width="0" fill="black" />

<path d="M339.05,649.59 L338.9,649.64 C338.73,649.4,338.57,649.3,338.3,649.3 C338.21,649.3,338.09,649.33,337.87,649.4 C337.37,649.55,336.94,649.64,336.53,649.64 C334.43,649.64,332.52,647.65,332.52,645.45 C332.52,644.77,332.81,644.07,333.27,643.6 C333.79,643.09,334.51,642.82,335.38,642.82 C336.25,642.82,336.97,643.01,337.74,643.44 L338.23,645.3 C338.39,645.86,338.55,645.98,339.19,646.02 V646.18 H336.54 V646.02 C336.66,646.01,336.79,645.99,336.83,645.99 C337.16,645.96,337.32,645.86,337.32,645.68 C337.32,645.46,337.26,645.18,337.04,644.45 C336.82,643.73,336.79,643.65,336.67,643.53 C336.45,643.31,336.07,643.19,335.62,643.19 C334.34,643.19,333.61,643.93,333.61,645.23 C333.61,646.46,334.1,647.72,334.89,648.56 C335.34,649.03,335.96,649.3,336.61,649.3 C337.26,649.3,337.81,649.03,338.11,648.57 C338.27,648.31,338.34,648.1,338.39,647.66 L338.57,647.63 Z " stroke-width="0" fill="black" />

<path d="M346.3,649.5 H341.01 L340.59,647.97 L340.77,647.93 C341.3,649.01,341.61,649.18,343.14,649.16 L341.7,643.9 C341.54,643.37,341.3,643.21,340.65,643.16 V643 H343.54 V643.16 C343.37,643.17,343.22,643.19,343.16,643.19 C342.76,643.22,342.64,643.31,342.64,643.61 C342.64,643.74,342.67,643.85,342.76,644.2 L344.14,649.16 H344.69 C345.41,649.16,345.73,648.91,345.73,648.35 C345.73,648.22,345.72,648.07,345.7,647.9 L345.87,647.88 Z " stroke-width="0" fill="black" />

<path d="M347.66,644.16 H347.02 L346.48,641.85 C346.22,641.52,345.89,641.33,345.58,641.33 C345.27,641.33,345.07,641.53,345.07,641.84 C345.07,641.91,345.08,642.01,345.09,642.06 L345.59,644.16 H344.94 L344.31,641.4 C344.27,641.2,344.19,640.99,344.06,640.66 C343.84,640.23,343.78,640.05,343.78,639.79 C343.78,639.57,343.86,639.46,344.03,639.46 C344.35,639.46,344.55,639.87,344.55,640.51 C344.55,640.58,344.55,640.71,344.55,640.82 C344.54,640.96,344.54,641.05,344.54,641.13 C344.54,641.25,344.55,641.33,344.55,641.49 C344.69,641.1,344.92,640.93,345.31,640.93 C345.7,640.93,346.06,641.13,346.45,641.59 C346.43,641.49,346.42,641.43,346.42,641.36 C346.42,641.07,346.56,640.93,346.84,640.93 C347.12,640.93,347.32,641.03,347.63,641.35 L347.65,641.41 C347.46,641.27,347.36,641.22,347.24,641.22 C347.11,641.22,347.04,641.29,347.04,641.43 C347.04,641.5,347.04,641.52,347.09,641.68 Z " stroke-width="0" fill="black" />

<path d="M347.93,644.38 L347.95,644.38 L347.97,644.38 L348.01,644.38 L348.04,644.38 L348.07,644.38 L348.1,644.38 L348.13,644.38 L348.16,644.37 L348.18,644.37 L348.2,644.37 L348.23,644.36 L348.25,644.36 L348.27,644.35 L348.28,644.34 L348.3,644.33 L348.32,644.32 L348.33,644.31 L348.35,644.3 L348.36,644.29 L348.37,644.27 L348.38,644.26 L348.4,644.24 L348.41,644.22 L348.42,644.2 L348.43,644.18 L348.45,644.15 L348.46,644.13 L348.47,644.1 L348.49,644.07 L348.49,644.05 L348.5,644.03 L348.51,644.01 L348.52,644 L348.52,643.98 L348.53,643.96 L348.54,643.94 L348.55,643.92 L349.73,640.9 H349.95 C350.11,641.31,350.12,641.32,350.31,641.7 C350.36,641.8,350.4,641.91,350.45,642 L350.88,642.81 C351.32,643.63,351.5,644.07,351.5,644.34 C351.5,644.58,351.31,644.78,351.07,644.78 C350.87,644.78,350.68,644.59,350.68,644.37 C350.68,644.32,350.69,644.3,350.76,643.96 C350.79,643.77,350.81,643.66,350.81,643.58 C350.81,643.39,350.75,643.2,350.57,642.88 L350.06,641.89 L348.92,644.78 C348.59,644.67,348.29,644.61,347.93,644.6 Z " stroke-width="0" fill="black" />

</g>

</svg>

