<?xml version="1.0" encoding="ISO-8859-1" standalone="no"?>

<!-- \nabla \times \vec{B} = \mu \vec{J}+\mu \epsilon \frac{\partial \vec{E}}{\partial t} -->

<!DOCTYPE svg PUBLIC "-//W3C//DTD SVG 1.1//EN" "http://www.w3.org/Graphics/SVG/1.1/DTD/svg11.dtd">

<svg version="1.1" baseProfile="full" id="body" width="4in" height="1.23456790123in" viewBox="0 0 81 25" preserveAspectRatio="none" xmlns="http://www.w3.org/2000/svg" xmlns:xlink="http://www.w3.org/1999/xlink" xmlns:ev="http://www.w3.org/2001/xml-events">
<title>SVG drawing</title>

<desc>This was produced by version 4.4 of GNU libplot, a free library for exporting 2-D vector graphics.</desc>

<g id="content" transform="scale(1,-1) translate(-265,-657)" xml:space="preserve" stroke="black" stroke-linecap="butt" stroke-linejoin="miter" stroke-miterlimit="10.433" stroke-dasharray="none" stroke-dashoffset="0" stroke-opacity="1" fill="none" fill-rule="evenodd" fill-opacity="1" font-style="normal" font-variant="normal" font-weight="normal" font-stretch="normal" font-size-adjust="none" letter-spacing="normal" word-spacing="normal" text-anchor="start">
<polygon points="272.79,646.84 272.08,646.34 269.75,641.77 267.64,646.35 272.08,646.34 272.79,646.84 266.36,646.84 269.38,640 " stroke-width="0" fill="black" />

<path d="M277.88,642.77 L275.88,644.75 C275.76,644.87,275.74,644.89,275.66,644.89 C275.56,644.89,275.46,644.8,275.46,644.69 C275.46,644.62,275.48,644.6,275.59,644.49 L277.59,642.49 L275.59,640.49 C275.48,640.38,275.46,640.36,275.46,640.29 C275.46,640.18,275.56,640.09,275.66,640.09 C275.74,640.09,275.76,640.11,275.88,640.23 L277.87,642.21 L279.93,640.15 C279.95,640.14,280.02,640.09,280.08,640.09 C280.2,640.09,280.28,640.18,280.28,640.29 C280.28,640.31,280.28,640.35,280.25,640.4 C280.24,640.42,278.65,641.98,278.16,642.49 L279.98,644.31 C280.03,644.38,280.18,644.5,280.23,644.56 C280.24,644.58,280.28,644.62,280.28,644.69 C280.28,644.8,280.2,644.89,280.08,644.89 C280,644.89,279.96,644.85,279.85,644.74 Z " stroke-width="0" fill="black" />

<path d="M288.35,647.93 L288.34,647.92 L288.32,647.9 L288.31,647.89 L288.29,647.87 L288.27,647.86 L288.26,647.84 L288.24,647.82 L288.22,647.81 L288.2,647.79 L288.18,647.77 L288.14,647.73 L288.1,647.69 L288.06,647.65 L288.05,647.63 L288.03,647.61 L288.01,647.59 L287.99,647.57 L287.98,647.55 L287.96,647.53 L287.95,647.51 L287.94,647.49 L287.92,647.47 L287.91,647.45 L287.91,647.43 L287.9,647.41 L287.89,647.39 L287.89,647.37 L287.88,647.36 L287.88,647.34 C287.88,647.24,287.98,647.14,288.08,647.14 C288.17,647.14,288.22,647.21,288.27,647.27 C288.39,647.42,288.62,647.7,289.06,647.92 C289.13,647.96,289.23,648.01,289.23,648.13 C289.23,648.23,289.16,648.28,289.09,648.33 C288.87,648.48,288.76,648.66,288.68,648.9 C288.66,648.98,288.62,649.11,288.48,649.11 C288.34,649.11,288.28,648.98,288.28,648.9 C288.28,648.85,288.36,648.53,288.52,648.33 H285.16 C284.99,648.33,284.81,648.33,284.81,648.13 C284.81,647.93,284.99,647.93,285.16,647.93 Z " stroke-width="0" fill="black" />

<path d="M282.92,640 H285.73 C287.29,640,288.37,640.82,288.37,641.99 C288.37,642.36,288.25,642.71,288.03,642.93 C287.83,643.16,287.63,643.28,287.11,643.5 C287.82,643.67,288.11,643.78,288.43,644.07 C288.71,644.3,288.86,644.65,288.86,645.04 C288.86,645.99,288.15,646.5,286.87,646.5 L286.69,646.21 C287.48,646.21,287.85,645.87,287.85,645.13 C287.85,644.56,287.61,644.12,287.18,643.89 C286.84,643.69,286.37,643.62,285.47,643.62 L285.37,643.3 C286.02,643.3,286.44,643.26,286.64,643.18 C287.04,643.01,287.29,642.57,287.29,642.03 C287.29,640.96,286.56,640.3,285.34,640.3 C284.92,640.3,284.7,640.45,284.7,640.72 C284.7,640.84,284.82,641.32,285.05,642.11 C285.18,642.56,285.24,642.79,285.37,643.3 H285.37 L285.47,643.62 L286.12,645.93 C286.18,646.15,286.3,646.21,286.69,646.21 L286.87,646.5 H284.3 V646.35 C284.91,646.3,285.06,646.22,285.06,645.94 C285.06,645.79,285.02,645.54,284.95,645.3 L283.73,640.9 C283.55,640.32,283.48,640.26,282.92,640.16 Z " stroke-width="0" fill="black" />

<path d="M298.84,643.26 L298.87,643.26 L298.9,643.26 L298.93,643.26 L298.94,643.26 L298.96,643.26 L298.97,643.26 L298.99,643.26 L299,643.27 L299.02,643.27 L299.03,643.27 L299.04,643.27 L299.06,643.28 L299.07,643.28 L299.08,643.29 L299.09,643.29 L299.1,643.3 L299.12,643.31 L299.13,643.31 L299.13,643.32 L299.14,643.33 L299.15,643.34 L299.16,643.35 L299.16,643.35 L299.16,643.36 L299.17,643.36 L299.17,643.37 L299.17,643.38 L299.17,643.38 L299.18,643.39 L299.18,643.4 L299.18,643.41 L299.18,643.41 L299.18,643.42 L299.18,643.43 L299.18,643.44 L299.18,643.45 L299.18,643.46 C299.18,643.66,298.99,643.66,298.86,643.66 H292.89 C292.75,643.66,292.56,643.66,292.56,643.46 C292.56,643.26,292.75,643.26,292.9,643.26 Z " stroke-width="0" fill="black" />

<path d="M298.86,641.32 L298.87,641.32 L298.88,641.32 L298.91,641.32 L298.94,641.33 L298.95,641.33 L298.96,641.33 L298.98,641.33 L298.99,641.33 L299.01,641.33 L299.02,641.33 L299.03,641.34 L299.05,641.34 L299.06,641.34 L299.07,641.35 L299.08,641.35 L299.09,641.36 L299.11,641.37 L299.12,641.37 L299.13,641.38 L299.14,641.39 L299.14,641.4 L299.15,641.4 L299.15,641.41 L299.16,641.41 L299.16,641.42 L299.16,641.42 L299.17,641.43 L299.17,641.44 L299.17,641.44 L299.17,641.45 L299.18,641.46 L299.18,641.46 L299.18,641.47 L299.18,641.48 L299.18,641.49 L299.18,641.5 L299.18,641.5 L299.18,641.51 L299.18,641.52 C299.18,641.72,298.99,641.72,298.84,641.72 H292.9 C292.75,641.72,292.56,641.72,292.56,641.52 C292.56,641.32,292.75,641.32,292.89,641.32 Z " stroke-width="0" fill="black" />

<path d="M306.95,644.27 H306.07 L305.35,641.15 C305,640.7,304.56,640.45,304.13,640.45 C303.71,640.45,303.45,640.72,303.45,641.14 C303.45,641.23,303.45,641.36,303.47,641.43 L304.14,644.27 H303.27 L302.42,640.54 C302.36,640.27,302.26,639.99,302.08,639.54 C301.78,638.97,301.7,638.72,301.7,638.37 C301.7,638.07,301.81,637.92,302.04,637.92 C302.47,637.92,302.75,638.48,302.75,639.34 C302.75,639.43,302.75,639.6,302.74,639.76 C302.73,639.94,302.73,640.07,302.73,640.18 C302.73,640.34,302.74,640.45,302.75,640.66 C302.94,640.14,303.25,639.9,303.77,639.9 C304.3,639.9,304.78,640.18,305.31,640.8 C305.28,640.66,305.27,640.59,305.27,640.49 C305.27,640.1,305.46,639.9,305.84,639.9 C306.22,639.9,306.48,640.04,306.9,640.47 L306.93,640.56 C306.68,640.37,306.54,640.3,306.38,640.3 C306.2,640.3,306.11,640.4,306.11,640.58 C306.11,640.68,306.11,640.7,306.18,640.92 Z " stroke-width="0" fill="black" />

<path d="M312.35,647.93 L312.34,647.92 L312.32,647.9 L312.31,647.89 L312.29,647.87 L312.27,647.86 L312.26,647.84 L312.24,647.82 L312.22,647.81 L312.2,647.79 L312.18,647.77 L312.14,647.73 L312.1,647.69 L312.06,647.65 L312.05,647.63 L312.03,647.61 L312.01,647.59 L311.99,647.57 L311.98,647.55 L311.96,647.53 L311.95,647.51 L311.94,647.49 L311.92,647.47 L311.91,647.45 L311.91,647.43 L311.9,647.41 L311.89,647.39 L311.89,647.37 L311.88,647.36 L311.88,647.34 C311.88,647.24,311.98,647.14,312.08,647.14 C312.17,647.14,312.22,647.21,312.27,647.27 C312.39,647.42,312.62,647.7,313.06,647.92 C313.13,647.96,313.23,648.01,313.23,648.13 C313.23,648.23,313.16,648.28,313.09,648.33 C312.87,648.48,312.76,648.66,312.68,648.9 C312.66,648.98,312.62,649.11,312.48,649.11 C312.34,649.11,312.28,648.98,312.28,648.9 C312.28,648.85,312.36,648.53,312.52,648.33 H309.16 C308.99,648.33,308.81,648.33,308.81,648.13 C308.81,647.93,308.99,647.93,309.16,647.93 Z " stroke-width="0" fill="black" />

<path d="M311.89,646.5 H309.36 V646.35 C309.99,646.28,310.13,646.21,310.13,645.94 C310.13,645.8,310.09,645.58,310.01,645.3 L308.7,640.67 C308.59,640.28,308.45,640.13,308.21,640.13 C307.98,640.13,307.87,640.26,307.87,640.53 C307.87,640.58,307.87,640.62,307.88,640.68 V640.77 C307.88,641.02,307.65,641.23,307.4,641.23 C307.13,641.23,306.94,641.02,306.94,640.7 C306.94,640.18,307.41,639.82,308.11,639.82 C308.61,639.82,309.06,640.02,309.37,640.39 C309.64,640.71,309.84,641.16,310.05,641.91 L311.07,645.61 C311.25,646.21,311.32,646.27,311.89,646.35 Z " stroke-width="0" fill="black" />

<path d="M317.07,642.29 H319.86 C319.99,642.29,320.18,642.29,320.18,642.49 C320.18,642.69,319.99,642.69,319.86,642.69 H317.07 V645.48 C317.07,645.62,317.07,645.81,316.88,645.81 C316.68,645.81,316.68,645.62,316.68,645.48 V642.69 H313.89 C313.75,642.69,313.56,642.69,313.56,642.49 C313.56,642.29,313.75,642.29,313.89,642.29 H316.68 V639.5 C316.68,639.36,316.68,639.17,316.88,639.17 C317.07,639.17,317.07,639.36,317.07,639.5 Z " stroke-width="0" fill="black" />

<path d="M326.95,644.27 H326.07 L325.35,641.15 C325,640.7,324.56,640.45,324.13,640.45 C323.71,640.45,323.45,640.72,323.45,641.14 C323.45,641.23,323.45,641.36,323.47,641.43 L324.14,644.27 H323.27 L322.42,640.54 C322.36,640.27,322.26,639.99,322.08,639.54 C321.78,638.97,321.7,638.72,321.7,638.37 C321.7,638.07,321.81,637.92,322.04,637.92 C322.47,637.92,322.75,638.48,322.75,639.34 C322.75,639.43,322.75,639.6,322.74,639.76 C322.73,639.94,322.73,640.07,322.73,640.18 C322.73,640.34,322.74,640.45,322.75,640.66 C322.94,640.14,323.25,639.9,323.77,639.9 C324.3,639.9,324.78,640.18,325.31,640.8 C325.28,640.66,325.27,640.59,325.27,640.49 C325.27,640.1,325.46,639.9,325.84,639.9 C326.22,639.9,326.48,640.04,326.9,640.47 L326.93,640.56 C326.68,640.37,326.54,640.3,326.38,640.3 C326.2,640.3,326.11,640.4,326.11,640.58 C326.11,640.68,326.11,640.7,326.18,640.92 Z " stroke-width="0" fill="black" />

<path d="M331.02,641.25 L331,641.19 L330.97,641.13 L330.95,641.08 L330.93,641.03 L330.9,640.98 L330.88,640.93 L330.85,640.89 L330.83,640.84 L330.8,640.8 L330.77,640.76 L330.74,640.73 L330.7,640.69 L330.67,640.66 L330.63,640.63 L330.6,640.6 L330.56,640.57 L330.52,640.55 L330.48,640.52 L330.43,640.5 L330.39,640.48 L330.34,640.46 L330.3,640.44 L330.25,640.43 L330.2,640.42 L330.14,640.4 L330.09,640.39 L330.03,640.39 L329.97,640.38 L329.91,640.37 L329.85,640.37 L329.79,640.37 L329.72,640.37 C329.24,640.37,328.84,640.49,328.56,640.73 C328.36,640.91,328.29,641.1,328.29,641.43 C328.29,642.01,328.62,642.39,329.15,642.39 C329.25,642.39,329.34,642.38,329.44,642.36 C329.57,642.33,329.69,642.31,329.79,642.31 C330.09,642.31,330.31,642.45,330.31,642.63 C330.31,642.79,330.19,642.87,329.96,642.87 C329.88,642.87,329.8,642.87,329.62,642.85 C329.29,642.82,329.21,642.81,329.12,642.81 C328.61,642.81,328.29,643.16,328.29,643.7 C328.29,644.28,328.7,644.76,329.22,644.76 C329.58,644.76,329.81,644.6,329.92,644.28 C329.97,644.13,330,644.05,330.01,644.03 C330.12,643.82,330.29,643.7,330.49,643.7 C330.75,643.7,330.96,643.91,330.96,644.2 C330.96,644.72,330.29,645.11,329.36,645.11 C328.73,645.11,328.27,644.97,327.89,644.66 C327.53,644.38,327.36,644.07,327.36,643.71 C327.36,643.38,327.51,643.08,327.76,642.89 C327.9,642.8,327.98,642.75,328.3,642.6 C327.9,642.46,327.71,642.35,327.53,642.15 C327.34,641.94,327.22,641.63,327.22,641.34 C327.22,640.49,328.1,639.87,329.33,639.87 C330.44,639.87,331.05,640.28,331.25,641.16 Z " stroke-width="0" fill="black" />

<path d="M334.07,653.72 L334.11,653.74 L334.15,653.76 L334.19,653.78 L334.23,653.79 L334.27,653.81 L334.31,653.83 L334.35,653.85 L334.38,653.86 L334.42,653.88 L334.46,653.89 L334.53,653.92 L334.6,653.94 L334.67,653.96 L334.73,653.98 L334.8,653.99 L334.86,654.01 L334.93,654.02 L334.99,654.03 L335.06,654.03 L335.12,654.03 L335.18,654.03 C336.19,654.03,336.78,653.09,336.78,651.47 C336.78,651.18,336.76,650.95,336.71,650.45 L336.56,650.19 C336.61,650.15,336.61,650.15,336.64,650.11 H336.64 C336.49,649,336.39,648.57,336.13,648.07 C335.87,647.54,335.44,647.21,335,647.21 C334.46,647.21,334.12,647.74,334.12,648.59 C334.12,649.72,334.79,650.66,335.6,650.66 C335.94,650.66,336.24,650.52,336.56,650.19 L336.71,650.45 C336.07,650.95,335.71,651.1,335.2,651.1 C334.71,651.1,334.3,650.93,333.95,650.53 C333.51,650.08,333.26,649.45,333.26,648.83 C333.26,647.76,334.09,646.9,335.12,646.9 C335.81,646.9,336.4,647.23,336.82,647.84 C337.27,648.52,337.6,649.85,337.6,651 C337.6,653,336.46,654.5,334.94,654.5 C334.55,654.5,334.21,654.42,333.66,654.22 Z " stroke-width="0" fill="black" />

<path d="M342.35,654.93 L342.34,654.92 L342.32,654.9 L342.31,654.89 L342.29,654.87 L342.27,654.86 L342.26,654.84 L342.24,654.82 L342.22,654.81 L342.2,654.79 L342.18,654.77 L342.14,654.73 L342.1,654.69 L342.06,654.65 L342.05,654.63 L342.03,654.61 L342.01,654.59 L341.99,654.57 L341.98,654.55 L341.96,654.53 L341.95,654.51 L341.94,654.49 L341.92,654.47 L341.91,654.45 L341.91,654.43 L341.9,654.41 L341.89,654.39 L341.89,654.37 L341.88,654.36 L341.88,654.34 C341.88,654.24,341.98,654.14,342.08,654.14 C342.17,654.14,342.22,654.21,342.27,654.27 C342.39,654.42,342.62,654.7,343.06,654.92 C343.13,654.96,343.23,655.01,343.23,655.13 C343.23,655.23,343.16,655.28,343.09,655.33 C342.87,655.48,342.76,655.66,342.68,655.9 C342.66,655.98,342.62,656.11,342.48,656.11 C342.34,656.11,342.28,655.98,342.28,655.9 C342.28,655.85,342.36,655.53,342.52,655.33 H339.16 C338.99,655.33,338.81,655.33,338.81,655.13 C338.81,654.93,338.99,654.93,339.16,654.93 Z " stroke-width="0" fill="black" />

<path d="M343.32,653.5 H338.36 V653.35 C338.98,653.28,339.13,653.21,339.13,652.94 C339.13,652.83,339.07,652.48,339.02,652.3 L337.8,647.9 C337.63,647.33,337.55,647.26,336.99,647.16 V647 H342.04 L342.66,648.61 L342.5,648.7 C342.03,648.05,341.77,647.8,341.34,647.6 C340.98,647.43,340.3,647.33,339.55,647.33 C338.99,647.33,338.75,647.43,338.75,647.67 C338.75,647.78,338.86,648.25,339.11,649.12 C339.24,649.56,339.33,649.89,339.43,650.27 C339.78,650.25,340.09,650.24,340.21,650.24 C340.6,650.25,340.88,650.19,340.98,650.09 C341.04,650.04,341.05,649.95,341.05,649.78 C341.05,649.61,341.04,649.48,340.98,649.26 L341.18,649.21 L341.86,651.52 L341.68,651.56 C341.3,650.72,341.21,650.66,340.31,650.62 C340.19,650.62,339.87,650.6,339.52,650.6 L340.18,652.92 C340.24,653.14,340.35,653.18,340.91,653.18 C342.47,653.18,342.82,653.05,342.82,652.45 C342.82,652.32,342.81,652.17,342.8,652 L343.01,651.98 Z " stroke-width="0" fill="black" />

<line x1="332.57" y1="642.8" x2="344.3" y2="642.8" stroke-width="0.405" />

<path d="M335.07,639.72 L335.11,639.74 L335.15,639.76 L335.19,639.78 L335.23,639.79 L335.27,639.81 L335.31,639.83 L335.35,639.85 L335.38,639.86 L335.42,639.88 L335.46,639.89 L335.53,639.92 L335.6,639.94 L335.67,639.96 L335.73,639.98 L335.8,639.99 L335.86,640.01 L335.93,640.02 L335.99,640.03 L336.06,640.03 L336.12,640.03 L336.18,640.03 C337.19,640.03,337.78,639.09,337.78,637.47 C337.78,637.18,337.76,636.95,337.71,636.45 L337.56,636.19 C337.61,636.15,337.61,636.15,337.64,636.11 H337.64 C337.49,635,337.39,634.57,337.13,634.07 C336.87,633.54,336.44,633.21,336,633.21 C335.46,633.21,335.12,633.74,335.12,634.59 C335.12,635.72,335.79,636.66,336.6,636.66 C336.94,636.66,337.24,636.52,337.56,636.19 L337.71,636.45 C337.07,636.95,336.71,637.1,336.2,637.1 C335.71,637.1,335.3,636.93,334.95,636.53 C334.51,636.08,334.26,635.45,334.26,634.83 C334.26,633.76,335.09,632.9,336.12,632.9 C336.81,632.9,337.4,633.23,337.82,633.84 C338.27,634.52,338.6,635.85,338.6,637 C338.6,639,337.46,640.5,335.94,640.5 C335.55,640.5,335.21,640.42,334.66,640.22 Z " stroke-width="0" fill="black" />

<path d="M341.95,637.27 H341.15 L341.43,638.29 C341.44,638.31,341.44,638.33,341.44,638.34 C341.44,638.41,341.41,638.44,341.36,638.44 C341.3,638.44,341.27,638.43,341.21,638.35 C340.82,637.84,340.21,637.34,339.89,637.25 C339.64,637.18,339.57,637.11,339.57,637 C339.57,637,339.57,636.98,339.58,636.95 H340.32 L339.6,634.21 C339.58,634.12,339.57,634.09,339.54,634 C339.45,633.7,339.37,633.35,339.37,633.27 C339.37,633.05,339.58,632.89,339.85,632.89 C340.3,632.89,340.63,633.17,341.26,634.1 L341.13,634.16 C340.64,633.54,340.48,633.38,340.32,633.38 C340.23,633.38,340.18,633.46,340.18,633.58 C340.18,633.59,340.18,633.6,340.19,633.63 L341.06,636.95 H341.9 Z " stroke-width="0" fill="black" />

</g>

</svg>

