<?xml version="1.0" encoding="ISO-8859-1" standalone="no"?>

<!-- E=\hbar \omega -->

<!DOCTYPE svg PUBLIC "-//W3C//DTD SVG 1.1//EN" "http://www.w3.org/Graphics/SVG/1.1/DTD/svg11.dtd">

<svg version="1.1" baseProfile="full" id="body" width="4in" height="1.09090909091in" viewBox="0 0 33 9" preserveAspectRatio="none" xmlns="http://www.w3.org/2000/svg" xmlns:xlink="http://www.w3.org/1999/xlink" xmlns:ev="http://www.w3.org/2001/xml-events">
<title>SVG drawing</title>

<desc>This was produced by version 4.4 of GNU libplot, a free library for exporting 2-D vector graphics.</desc>

<g id="content" transform="scale(1,-1) translate(-290,-653)" xml:space="preserve" stroke="black" stroke-linecap="butt" stroke-linejoin="miter" stroke-miterlimit="10.433" stroke-dasharray="none" stroke-dashoffset="0" stroke-opacity="1" fill="none" fill-rule="evenodd" fill-opacity="1" font-style="normal" font-variant="normal" font-weight="normal" font-stretch="normal" font-size-adjust="none" letter-spacing="normal" word-spacing="normal" text-anchor="start">
<path d="M297.32,651.5 H292.36 V651.35 C292.98,651.28,293.13,651.21,293.13,650.94 C293.13,650.83,293.07,650.48,293.02,650.3 L291.8,645.9 C291.63,645.33,291.55,645.26,290.99,645.16 V645 H296.04 L296.66,646.61 L296.5,646.7 C296.03,646.05,295.77,645.8,295.34,645.6 C294.98,645.43,294.3,645.33,293.55,645.33 C292.99,645.33,292.75,645.43,292.75,645.67 C292.75,645.78,292.86,646.25,293.11,647.12 C293.24,647.56,293.33,647.89,293.43,648.27 C293.78,648.25,294.09,648.24,294.21,648.24 C294.6,648.25,294.88,648.19,294.98,648.09 C295.04,648.04,295.05,647.95,295.05,647.78 C295.05,647.61,295.04,647.48,294.98,647.26 L295.18,647.21 L295.86,649.52 L295.68,649.56 C295.3,648.72,295.21,648.66,294.31,648.62 C294.19,648.62,293.87,648.6,293.52,648.6 L294.18,650.92 C294.24,651.14,294.35,651.18,294.91,651.18 C296.47,651.18,296.82,651.05,296.82,650.45 C296.82,650.32,296.81,650.17,296.8,650 L297.01,649.98 Z " stroke-width="0" fill="black" />

<path d="M306.84,648.26 L306.87,648.26 L306.9,648.26 L306.93,648.26 L306.94,648.26 L306.96,648.26 L306.97,648.26 L306.99,648.26 L307,648.27 L307.02,648.27 L307.03,648.27 L307.04,648.27 L307.06,648.28 L307.07,648.28 L307.08,648.29 L307.09,648.29 L307.1,648.3 L307.12,648.31 L307.13,648.31 L307.13,648.32 L307.14,648.33 L307.15,648.34 L307.16,648.35 L307.16,648.35 L307.16,648.36 L307.17,648.36 L307.17,648.37 L307.17,648.38 L307.17,648.38 L307.18,648.39 L307.18,648.4 L307.18,648.41 L307.18,648.41 L307.18,648.42 L307.18,648.43 L307.18,648.44 L307.18,648.45 L307.18,648.46 C307.18,648.66,306.99,648.66,306.86,648.66 H300.89 C300.75,648.66,300.56,648.66,300.56,648.46 C300.56,648.26,300.75,648.26,300.9,648.26 Z " stroke-width="0" fill="black" />

<path d="M306.86,646.32 L306.87,646.32 L306.88,646.32 L306.91,646.32 L306.94,646.33 L306.95,646.33 L306.96,646.33 L306.98,646.33 L306.99,646.33 L307.01,646.33 L307.02,646.33 L307.03,646.34 L307.05,646.34 L307.06,646.34 L307.07,646.35 L307.08,646.35 L307.09,646.36 L307.11,646.37 L307.12,646.37 L307.13,646.38 L307.14,646.39 L307.14,646.4 L307.15,646.4 L307.15,646.41 L307.16,646.41 L307.16,646.42 L307.16,646.42 L307.17,646.43 L307.17,646.44 L307.17,646.44 L307.17,646.45 L307.18,646.46 L307.18,646.46 L307.18,646.47 L307.18,646.48 L307.18,646.49 L307.18,646.5 L307.18,646.5 L307.18,646.51 L307.18,646.52 C307.18,646.72,306.99,646.72,306.84,646.72 H300.9 C300.75,646.72,300.56,646.72,300.56,646.52 C300.56,646.32,300.75,646.32,300.89,646.32 Z " stroke-width="0" fill="black" />

<polygon points="310.11,650.99 310.11,650.45 313.21,650.45 313.21,650.99 " stroke-width="0" fill="black" />

<path d="M312.63,646.16 L312.61,646.13 L312.58,646.1 L312.56,646.07 L312.54,646.04 L312.51,646.02 L312.49,645.99 L312.47,645.96 L312.45,645.94 L312.43,645.91 L312.41,645.89 L312.39,645.86 L312.37,645.84 L312.35,645.82 L312.33,645.8 L312.3,645.76 L312.27,645.72 L312.24,645.68 L312.21,645.65 L312.18,645.62 L312.15,645.59 L312.13,645.56 L312.11,645.54 L312.08,645.52 L312.06,645.5 L312.04,645.48 L312.02,645.46 L312,645.45 L311.99,645.44 L311.97,645.42 L311.95,645.42 L311.94,645.41 L311.92,645.4 L311.9,645.39 L311.89,645.39 L311.88,645.39 L311.86,645.38 L311.85,645.38 L311.82,645.38 C311.73,645.38,311.66,645.47,311.66,645.56 C311.66,645.66,311.82,646.28,311.98,646.8 C312.27,647.75,312.46,648.49,312.46,648.73 C312.46,649.12,312.2,649.4,311.8,649.4 C311.16,649.4,310.45,648.73,309.52,647.29 L310.72,651.75 L310.67,651.8 C310.09,651.68,309.7,651.6,309.11,651.53 V651.39 H309.36 C309.38,651.39,309.39,651.39,309.39,651.4 C309.54,651.46,309.77,651.28,309.77,651.15 C309.77,651.01,309.72,650.76,309.63,650.47 C309.62,650.46,309.59,650.32,309.54,650.1 L308.19,645 H308.94 C309.34,646.53,309.46,646.87,309.86,647.48 C310.38,648.27,311.06,648.89,311.41,648.89 C311.56,648.89,311.69,648.77,311.69,648.64 C311.69,648.6,311.66,648.47,311.62,648.31 L311.07,646.25 C310.94,645.76,310.87,645.45,310.87,645.33 C310.87,645.07,311.04,644.91,311.31,644.91 C311.82,644.91,312.16,645.18,312.76,646.05 Z " stroke-width="0" fill="black" />

<path d="M317.27,649.85 L317.3,649.84 L317.33,649.83 L317.37,649.82 L317.4,649.81 L317.43,649.8 L317.46,649.79 L317.49,649.78 L317.52,649.77 L317.54,649.76 L317.57,649.75 L317.62,649.73 L317.68,649.71 L317.72,649.68 L317.77,649.66 L317.82,649.63 L317.86,649.6 L317.9,649.57 L317.95,649.54 L317.99,649.51 L318.03,649.47 L318.07,649.43 C318.5,649.03,318.76,648.25,318.76,647.37 C318.76,646.73,318.64,646.1,318.45,645.75 C318.33,645.52,318.08,645.37,317.82,645.37 C317.32,645.37,317,645.78,316.86,646.59 C317.09,647.25,317.16,647.57,317.16,648.06 C317.16,648.75,316.96,649.16,316.62,649.16 C316.28,649.16,316.08,648.75,316.08,648.06 C316.08,647.57,316.14,647.25,316.38,646.59 C316.24,645.78,315.91,645.37,315.41,645.37 C315.15,645.37,314.9,645.52,314.79,645.75 C314.59,646.1,314.47,646.72,314.47,647.37 C314.47,648.18,314.7,648.93,315.07,649.34 C315.3,649.59,315.55,649.73,315.97,649.85 V650.11 C315.43,650.1,315.08,650.04,314.77,649.91 C313.95,649.55,313.42,648.53,313.42,647.3 C313.42,645.93,314.2,644.87,315.21,644.87 C315.81,644.87,316.28,645.2,316.62,645.88 C316.96,645.2,317.42,644.87,318.02,644.87 C319.04,644.87,319.81,645.93,319.81,647.3 C319.81,648.48,319.33,649.47,318.56,649.86 C318.24,650.03,317.86,650.1,317.27,650.11 Z " stroke-width="0" fill="black" />

</g>

</svg>

