<?xml version="1.0" encoding="ISO-8859-1" standalone="no"?>

<!-- \frac{\hbar^2 \nabla^2}{2m}\phi(r)+V(r)\phi(r)=E\phi(r) -->

<!DOCTYPE svg PUBLIC "-//W3C//DTD SVG 1.1//EN" "http://www.w3.org/Graphics/SVG/1.1/DTD/svg11.dtd">

<svg version="1.1" baseProfile="full" id="body" width="4in" height="0.780487804878in" viewBox="0 0 123 24" preserveAspectRatio="none" xmlns="http://www.w3.org/2000/svg" xmlns:xlink="http://www.w3.org/1999/xlink" xmlns:ev="http://www.w3.org/2001/xml-events">
<title>SVG drawing</title>

<desc>This was produced by version 4.4 of GNU libplot, a free library for exporting 2-D vector graphics.</desc>

<g id="content" transform="scale(1,-1) translate(-244,-657)" xml:space="preserve" stroke="black" stroke-linecap="butt" stroke-linejoin="miter" stroke-miterlimit="10.433" stroke-dasharray="none" stroke-dashoffset="0" stroke-opacity="1" fill="none" fill-rule="evenodd" fill-opacity="1" font-style="normal" font-variant="normal" font-weight="normal" font-stretch="normal" font-size-adjust="none" letter-spacing="normal" word-spacing="normal" text-anchor="start">
<polygon points="247.11,652.99 247.11,652.45 250.21,652.45 250.21,652.99 " stroke-width="0" fill="black" />

<path d="M249.63,648.16 L249.61,648.13 L249.58,648.1 L249.56,648.07 L249.54,648.04 L249.51,648.02 L249.49,647.99 L249.47,647.96 L249.45,647.94 L249.43,647.91 L249.41,647.89 L249.39,647.86 L249.37,647.84 L249.35,647.82 L249.33,647.8 L249.3,647.76 L249.27,647.72 L249.24,647.68 L249.21,647.65 L249.18,647.62 L249.15,647.59 L249.13,647.56 L249.11,647.54 L249.08,647.52 L249.06,647.5 L249.04,647.48 L249.02,647.46 L249,647.45 L248.99,647.44 L248.97,647.42 L248.95,647.42 L248.94,647.41 L248.92,647.4 L248.9,647.39 L248.89,647.39 L248.88,647.39 L248.86,647.38 L248.85,647.38 L248.82,647.38 C248.73,647.38,248.66,647.47,248.66,647.56 C248.66,647.66,248.82,648.28,248.98,648.8 C249.27,649.75,249.46,650.49,249.46,650.73 C249.46,651.12,249.2,651.4,248.8,651.4 C248.16,651.4,247.45,650.73,246.52,649.29 L247.72,653.75 L247.67,653.8 C247.09,653.68,246.7,653.6,246.1,653.53 V653.39 H246.36 C246.38,653.39,246.39,653.39,246.4,653.4 C246.54,653.46,246.77,653.28,246.77,653.15 C246.77,653.01,246.72,652.76,246.63,652.47 C246.62,652.46,246.59,652.32,246.54,652.1 L245.19,647 H245.94 C246.34,648.53,246.46,648.87,246.86,649.48 C247.38,650.27,248.06,650.89,248.41,650.89 C248.56,650.89,248.69,650.77,248.69,650.64 C248.69,650.6,248.66,650.47,248.62,650.31 L248.07,648.25 C247.94,647.76,247.87,647.45,247.87,647.33 C247.87,647.07,248.04,646.91,248.31,646.91 C248.82,646.91,249.16,647.18,249.76,648.05 Z " stroke-width="0" fill="black" />

<path d="M253.5,652.01 L253.41,652.05 C253.13,651.62,253.04,651.56,252.71,651.56 H250.95 L252.18,652.86 C252.84,653.54,253.12,654.1,253.12,654.68 C253.12,655.42,252.53,655.98,251.76,655.98 C251.35,655.98,250.97,655.82,250.7,655.53 C250.46,655.28,250.35,655.04,250.23,654.52 L250.38,654.48 C250.68,655.2,250.95,655.44,251.45,655.44 C252.07,655.44,252.49,655.02,252.49,654.4 C252.49,653.82,252.15,653.14,251.54,652.48 L250.22,651.09 V651 H253.1 Z " stroke-width="0" fill="black" />

<polygon points="260.79,653.84 260.08,653.34 257.75,648.77 255.65,653.35 260.08,653.34 260.79,653.84 254.36,653.84 257.38,647 " stroke-width="0" fill="black" />

<path d="M264.5,652.01 L264.41,652.05 C264.13,651.62,264.04,651.56,263.71,651.56 H261.95 L263.18,652.86 C263.84,653.54,264.12,654.1,264.12,654.68 C264.12,655.42,263.53,655.98,262.76,655.98 C262.36,655.98,261.97,655.82,261.7,655.53 C261.46,655.28,261.36,655.04,261.23,654.52 L261.38,654.48 C261.68,655.2,261.95,655.44,262.45,655.44 C263.07,655.44,263.49,655.02,263.49,654.4 C263.49,653.82,263.15,653.14,262.54,652.48 L261.22,651.09 V651 H264.1 Z " stroke-width="0" fill="black" />

<line x1="246.6" y1="643.05" x2="265.39" y2="643.05" stroke-width="0.405" />

<path d="M254.73,635.36 L254.6,635.41 C254.23,634.85,254.1,634.76,253.66,634.76 H251.27 L252.95,636.51 C253.84,637.44,254.22,638.2,254.22,638.97 C254.22,639.97,253.42,640.73,252.38,640.73 C251.83,640.73,251.32,640.52,250.95,640.12 C250.63,639.78,250.48,639.46,250.31,638.75 L250.52,638.7 C250.92,639.68,251.27,640,251.96,640 C252.8,640,253.37,639.43,253.37,638.59 C253.37,637.82,252.91,636.89,252.07,636 L250.3,634.12 V634 H254.18 Z " stroke-width="0" fill="black" />

<path d="M261.86,635.16 L261.85,635.14 L261.83,635.12 L261.81,635.1 L261.79,635.08 L261.78,635.06 L261.77,635.05 L261.76,635.04 L261.75,635.03 L261.75,635.02 L261.74,635.01 L261.73,635.01 L261.73,635 L261.72,634.99 L261.71,634.98 L261.71,634.97 L261.7,634.97 L261.7,634.96 L261.69,634.95 L261.69,634.95 L261.68,634.94 L261.68,634.93 L261.67,634.93 L261.67,634.92 L261.67,634.92 L261.66,634.91 L261.66,634.91 L261.66,634.91 C261.38,634.55,261.17,634.38,261.02,634.38 C260.94,634.38,260.89,634.44,260.89,634.54 C260.89,634.59,260.93,634.75,260.99,634.98 L261.66,637.49 C261.68,637.53,261.7,637.71,261.7,637.77 C261.7,638.12,261.45,638.4,261.11,638.4 C260.92,638.4,260.72,638.32,260.48,638.18 C259.99,637.85,259.58,637.38,258.89,636.28 C259.14,637.04,259.29,637.6,259.29,637.8 C259.29,638.15,259.07,638.4,258.73,638.4 C258.12,638.4,257.42,637.73,256.5,636.29 L257.08,638.38 L257.05,638.4 C256.5,638.27,256.29,638.23,255.46,638.09 V637.93 H255.71 C255.96,637.93,256.1,637.85,256.1,637.71 C256.1,637.6,255.87,636.69,255.51,635.43 C255.28,634.61,255.25,634.51,255.12,634 H255.87 C256.34,635.59,256.5,635.95,256.83,636.47 C257.39,637.32,257.99,637.88,258.33,637.88 C258.46,637.88,258.53,637.78,258.53,637.62 C258.53,637.53,258.21,636.33,257.58,634 H258.33 C258.73,635.55,258.93,636.05,259.43,636.76 C259.92,637.44,260.42,637.88,260.71,637.88 C260.82,637.88,260.91,637.78,260.91,637.67 C260.91,637.62,260.89,637.5,260.84,637.32 L260.26,635.03 C260.17,634.66,260.13,634.47,260.13,634.37 C260.13,634.07,260.27,633.91,260.53,633.91 C261,633.91,261.44,634.24,261.96,634.98 L262.02,635.05 Z " stroke-width="0" fill="black" />

<path d="M269.78,640.93 V641.28 V645.65 C270.49,645.38,270.91,644.44,270.91,643.17 C270.91,642,270.51,641.32,269.78,641.28 V640.93 C271,641.1,271.88,642.22,271.88,643.62 C271.88,644.98,271.04,645.97,269.78,646.06 V646.86 C269.78,647.23,269.79,647.41,269.81,647.65 L269.34,647.84 C269.36,647.59,269.37,647.35,269.37,646.95 V646.06 V645.71 V641.33 C269.09,641.44,268.89,641.6,268.74,641.83 C268.43,642.32,268.23,643.07,268.23,643.86 C268.23,644.98,268.66,645.68,269.37,645.71 V646.06 C268.18,645.92,267.27,644.78,267.27,643.41 C267.27,642.03,268.12,641.01,269.37,640.91 V639.9 C269.37,639.46,269.36,639.18,269.34,638.9 L269.81,638.79 C269.79,639.12,269.79,639.15,269.78,639.59 V639.85 Z " stroke-width="0" fill="black" />

<path d="M275.3,638.61 L275.3,638.61 L275.3,638.62 L275.3,638.62 L275.3,638.63 L275.3,638.63 L275.29,638.63 L275.29,638.64 L275.29,638.64 L275.29,638.64 L275.29,638.65 L275.29,638.65 L275.28,638.66 L275.28,638.66 L275.28,638.67 L275.27,638.67 L275.27,638.68 L275.26,638.69 L275.26,638.69 L275.25,638.7 L275.25,638.7 L275.25,638.71 L275.24,638.71 L275.24,638.71 L275.23,638.72 L275.23,638.72 L275.23,638.73 L275.22,638.73 L275.22,638.74 L275.21,638.74 L275.21,638.75 L275.2,638.75 L275.2,638.76 L275.19,638.77 L275.18,638.77 L275.18,638.78 L275.17,638.78 L275.17,638.79 L275.16,638.8 L275.15,638.81 L275.14,638.81 L275.14,638.82 L275.13,638.83 C273.88,640.08,273.56,641.97,273.56,643.49 C273.56,645.22,273.94,646.96,275.17,648.2 C275.3,648.32,275.3,648.34,275.3,648.37 C275.3,648.44,275.26,648.47,275.2,648.47 C275.1,648.47,274.2,647.79,273.61,646.53 C273.11,645.43,272.98,644.33,272.98,643.49 C272.98,642.72,273.1,641.51,273.64,640.38 C274.24,639.16,275.1,638.51,275.2,638.51 C275.26,638.51,275.3,638.54,275.3,638.61 Z " stroke-width="0" fill="black" />

<path d="M277.21,641 L277.25,641.16 L277.3,641.3 L277.34,641.44 L277.39,641.58 L277.43,641.71 L277.47,641.83 L277.5,641.95 L277.54,642.06 L277.57,642.16 L277.61,642.27 L277.64,642.36 L277.68,642.46 L277.71,642.54 L277.74,642.63 L277.77,642.71 L277.8,642.79 L277.83,642.87 L277.86,642.94 L277.92,643.08 L277.99,643.22 L278.05,643.35 L278.12,643.48 L278.19,643.61 L278.27,643.74 L278.31,643.81 L278.35,643.88 C278.68,644.44,278.96,644.75,279.13,644.75 C279.19,644.75,279.24,644.71,279.29,644.6 C279.37,644.44,279.45,644.39,279.64,644.39 C279.93,644.39,280.11,644.57,280.11,644.88 C280.11,645.18,279.91,645.4,279.64,645.4 C279.41,645.4,279.14,645.24,278.88,644.98 C278.47,644.56,278.07,643.97,277.91,643.57 L277.77,643.21 L278.3,645.38 L278.27,645.4 C277.54,645.27,277.45,645.24,276.73,645.12 V644.96 C276.96,645,277,645,277.07,645 C277.29,645,277.41,644.91,277.41,644.73 C277.41,644.59,277.41,644.59,277.25,643.91 L276.45,641 Z " stroke-width="0" fill="black" />

<path d="M282.88,643.49 L282.88,643.57 L282.88,643.64 L282.88,643.72 L282.87,643.8 L282.87,643.97 L282.85,644.15 L282.84,644.33 L282.82,644.52 L282.79,644.72 L282.76,644.91 L282.72,645.12 L282.67,645.33 L282.62,645.54 L282.56,645.75 L282.49,645.96 L282.41,646.17 L282.37,646.28 L282.32,646.39 L282.27,646.49 L282.22,646.6 C281.62,647.82,280.77,648.47,280.67,648.47 C280.61,648.47,280.57,648.43,280.57,648.37 C280.57,648.34,280.57,648.32,280.76,648.15 C281.73,647.16,282.3,645.57,282.3,643.49 C282.3,641.78,281.93,640.03,280.7,638.78 C280.57,638.66,280.57,638.64,280.57,638.61 C280.57,638.55,280.61,638.51,280.67,638.51 C280.77,638.51,281.66,639.19,282.25,640.45 C282.76,641.55,282.88,642.65,282.88,643.49 Z " stroke-width="0" fill="black" />

<path d="M289.07,643.29 H291.86 C291.99,643.29,292.18,643.29,292.18,643.49 C292.18,643.69,291.99,643.69,291.86,643.69 H289.07 V646.48 C289.07,646.62,289.07,646.81,288.88,646.81 C288.68,646.81,288.68,646.62,288.68,646.48 V643.69 H285.89 C285.75,643.69,285.56,643.69,285.56,643.49 C285.56,643.29,285.75,643.29,285.89,643.29 H288.68 V640.5 C288.68,640.36,288.68,640.17,288.88,640.17 C289.07,640.17,289.07,640.36,289.07,640.5 Z " stroke-width="0" fill="black" />

<path d="M300.86,647.5 H299 V647.35 C299.45,647.3,299.63,647.2,299.63,647.01 C299.63,646.82,299.44,646.39,299.11,645.82 L297.06,642.27 L296.4,646.69 C296.39,646.74,296.39,646.78,296.39,646.84 C296.39,647.18,296.53,647.28,297.16,647.35 V647.5 H294.76 V647.35 C295.32,647.28,295.34,647.25,295.54,646 L296.39,640.82 H296.58 L300.3,646.95 C300.46,647.22,300.62,647.34,300.86,647.35 Z " stroke-width="0" fill="black" />

<path d="M304.3,638.61 L304.3,638.61 L304.3,638.62 L304.3,638.62 L304.3,638.63 L304.3,638.63 L304.29,638.63 L304.29,638.64 L304.29,638.64 L304.29,638.64 L304.29,638.65 L304.29,638.65 L304.28,638.66 L304.28,638.66 L304.28,638.67 L304.27,638.67 L304.27,638.68 L304.26,638.69 L304.26,638.69 L304.25,638.7 L304.25,638.7 L304.25,638.71 L304.24,638.71 L304.24,638.71 L304.23,638.72 L304.23,638.72 L304.23,638.73 L304.22,638.73 L304.22,638.74 L304.21,638.74 L304.21,638.75 L304.2,638.75 L304.2,638.76 L304.19,638.77 L304.18,638.77 L304.18,638.78 L304.17,638.78 L304.17,638.79 L304.16,638.8 L304.15,638.81 L304.14,638.81 L304.14,638.82 L304.13,638.83 C302.88,640.08,302.56,641.97,302.56,643.49 C302.56,645.22,302.94,646.96,304.17,648.2 C304.3,648.32,304.3,648.34,304.3,648.37 C304.3,648.44,304.26,648.47,304.2,648.47 C304.1,648.47,303.2,647.79,302.61,646.53 C302.11,645.43,301.98,644.33,301.98,643.49 C301.98,642.72,302.1,641.51,302.64,640.38 C303.24,639.16,304.1,638.51,304.2,638.51 C304.26,638.51,304.3,638.54,304.3,638.61 Z " stroke-width="0" fill="black" />

<path d="M306.21,641 L306.25,641.16 L306.3,641.3 L306.34,641.44 L306.39,641.58 L306.43,641.71 L306.47,641.83 L306.5,641.95 L306.54,642.06 L306.57,642.16 L306.61,642.27 L306.64,642.36 L306.68,642.46 L306.71,642.54 L306.74,642.63 L306.77,642.71 L306.8,642.79 L306.83,642.87 L306.86,642.94 L306.92,643.08 L306.99,643.22 L307.05,643.35 L307.12,643.48 L307.19,643.61 L307.27,643.74 L307.31,643.81 L307.35,643.88 C307.68,644.44,307.96,644.75,308.13,644.75 C308.19,644.75,308.24,644.71,308.29,644.6 C308.37,644.44,308.45,644.39,308.64,644.39 C308.93,644.39,309.11,644.57,309.11,644.88 C309.11,645.18,308.91,645.4,308.64,645.4 C308.41,645.4,308.14,645.24,307.88,644.98 C307.47,644.56,307.07,643.97,306.91,643.57 L306.77,643.21 L307.3,645.38 L307.27,645.4 C306.54,645.27,306.45,645.24,305.73,645.12 V644.96 C305.96,645,306,645,306.07,645 C306.29,645,306.41,644.91,306.41,644.73 C306.41,644.59,306.41,644.59,306.25,643.91 L305.45,641 Z " stroke-width="0" fill="black" />

<path d="M311.88,643.49 L311.88,643.57 L311.88,643.64 L311.88,643.72 L311.87,643.8 L311.87,643.97 L311.85,644.15 L311.84,644.33 L311.82,644.52 L311.79,644.72 L311.76,644.91 L311.72,645.12 L311.67,645.33 L311.62,645.54 L311.56,645.75 L311.49,645.96 L311.41,646.17 L311.37,646.28 L311.32,646.39 L311.27,646.49 L311.22,646.6 C310.62,647.82,309.77,648.47,309.67,648.47 C309.61,648.47,309.57,648.43,309.57,648.37 C309.57,648.34,309.57,648.32,309.76,648.15 C310.73,647.16,311.3,645.57,311.3,643.49 C311.3,641.78,310.93,640.03,309.7,638.78 C309.57,638.66,309.57,638.64,309.57,638.61 C309.57,638.55,309.61,638.51,309.67,638.51 C309.77,638.51,310.66,639.19,311.25,640.45 C311.76,641.55,311.88,642.65,311.88,643.49 Z " stroke-width="0" fill="black" />

<path d="M315.78,640.93 V641.28 V645.65 C316.49,645.38,316.91,644.44,316.91,643.17 C316.91,642,316.51,641.32,315.78,641.28 V640.93 C317,641.1,317.88,642.22,317.88,643.62 C317.88,644.98,317.04,645.97,315.78,646.06 V646.86 C315.78,647.23,315.79,647.41,315.81,647.65 L315.34,647.84 C315.36,647.59,315.37,647.35,315.37,646.95 V646.06 V645.71 V641.33 C315.09,641.44,314.89,641.6,314.74,641.83 C314.43,642.32,314.23,643.07,314.23,643.86 C314.23,644.98,314.66,645.68,315.37,645.71 V646.06 C314.18,645.92,313.27,644.78,313.27,643.41 C313.27,642.03,314.12,641.01,315.37,640.91 V639.9 C315.37,639.46,315.36,639.18,315.34,638.9 L315.81,638.79 C315.79,639.12,315.79,639.15,315.78,639.59 V639.85 Z " stroke-width="0" fill="black" />

<path d="M321.3,638.61 L321.3,638.61 L321.3,638.62 L321.3,638.62 L321.3,638.63 L321.3,638.63 L321.29,638.63 L321.29,638.64 L321.29,638.64 L321.29,638.64 L321.29,638.65 L321.29,638.65 L321.28,638.66 L321.28,638.66 L321.28,638.67 L321.27,638.67 L321.27,638.68 L321.26,638.69 L321.26,638.69 L321.25,638.7 L321.25,638.7 L321.25,638.71 L321.24,638.71 L321.24,638.71 L321.23,638.72 L321.23,638.72 L321.23,638.73 L321.22,638.73 L321.22,638.74 L321.21,638.74 L321.21,638.75 L321.2,638.75 L321.2,638.76 L321.19,638.77 L321.18,638.77 L321.18,638.78 L321.17,638.78 L321.17,638.79 L321.16,638.8 L321.15,638.81 L321.14,638.81 L321.14,638.82 L321.13,638.83 C319.88,640.08,319.56,641.97,319.56,643.49 C319.56,645.22,319.94,646.96,321.17,648.2 C321.3,648.32,321.3,648.34,321.3,648.37 C321.3,648.44,321.26,648.47,321.2,648.47 C321.1,648.47,320.2,647.79,319.61,646.53 C319.11,645.43,318.98,644.33,318.98,643.49 C318.98,642.72,319.1,641.51,319.64,640.38 C320.24,639.16,321.1,638.51,321.2,638.51 C321.26,638.51,321.3,638.54,321.3,638.61 Z " stroke-width="0" fill="black" />

<path d="M323.21,641 L323.25,641.16 L323.3,641.3 L323.34,641.44 L323.39,641.58 L323.43,641.71 L323.47,641.83 L323.5,641.95 L323.54,642.06 L323.57,642.16 L323.61,642.27 L323.64,642.36 L323.68,642.46 L323.71,642.54 L323.74,642.63 L323.77,642.71 L323.8,642.79 L323.83,642.87 L323.86,642.94 L323.92,643.08 L323.99,643.22 L324.05,643.35 L324.12,643.48 L324.19,643.61 L324.27,643.74 L324.31,643.81 L324.35,643.88 C324.68,644.44,324.96,644.75,325.13,644.75 C325.19,644.75,325.24,644.71,325.29,644.6 C325.37,644.44,325.45,644.39,325.64,644.39 C325.93,644.39,326.11,644.57,326.11,644.88 C326.11,645.18,325.91,645.4,325.64,645.4 C325.41,645.4,325.14,645.24,324.88,644.98 C324.47,644.56,324.07,643.97,323.91,643.57 L323.77,643.21 L324.3,645.38 L324.27,645.4 C323.54,645.27,323.45,645.24,322.73,645.12 V644.96 C322.96,645,323,645,323.07,645 C323.29,645,323.41,644.91,323.41,644.73 C323.41,644.59,323.41,644.59,323.25,643.91 L322.45,641 Z " stroke-width="0" fill="black" />

<path d="M328.88,643.49 L328.88,643.57 L328.88,643.64 L328.88,643.72 L328.87,643.8 L328.87,643.97 L328.85,644.15 L328.84,644.33 L328.82,644.52 L328.79,644.72 L328.76,644.91 L328.72,645.12 L328.67,645.33 L328.62,645.54 L328.56,645.75 L328.49,645.96 L328.41,646.17 L328.37,646.28 L328.32,646.39 L328.27,646.49 L328.22,646.6 C327.62,647.82,326.77,648.47,326.67,648.47 C326.61,648.47,326.57,648.43,326.57,648.37 C326.57,648.34,326.57,648.32,326.76,648.15 C327.73,647.16,328.3,645.57,328.3,643.49 C328.3,641.78,327.93,640.03,326.7,638.78 C326.57,638.66,326.57,638.64,326.57,638.61 C326.57,638.55,326.61,638.51,326.67,638.51 C326.77,638.51,327.66,639.19,328.25,640.45 C328.76,641.55,328.88,642.65,328.88,643.49 Z " stroke-width="0" fill="black" />

<path d="M338.84,644.26 L338.87,644.26 L338.9,644.26 L338.93,644.26 L338.94,644.26 L338.96,644.26 L338.97,644.26 L338.99,644.26 L339,644.27 L339.02,644.27 L339.03,644.27 L339.04,644.27 L339.06,644.28 L339.07,644.28 L339.08,644.29 L339.09,644.29 L339.1,644.3 L339.12,644.31 L339.13,644.31 L339.13,644.32 L339.14,644.33 L339.15,644.34 L339.16,644.35 L339.16,644.35 L339.16,644.36 L339.17,644.36 L339.17,644.37 L339.17,644.38 L339.17,644.38 L339.18,644.39 L339.18,644.4 L339.18,644.41 L339.18,644.41 L339.18,644.42 L339.18,644.43 L339.18,644.44 L339.18,644.45 L339.18,644.46 C339.18,644.66,338.99,644.66,338.86,644.66 H332.89 C332.75,644.66,332.56,644.66,332.56,644.46 C332.56,644.26,332.75,644.26,332.9,644.26 Z " stroke-width="0" fill="black" />

<path d="M338.86,642.32 L338.87,642.32 L338.88,642.32 L338.91,642.32 L338.94,642.33 L338.95,642.33 L338.96,642.33 L338.98,642.33 L338.99,642.33 L339.01,642.33 L339.02,642.33 L339.03,642.34 L339.05,642.34 L339.06,642.34 L339.07,642.35 L339.08,642.35 L339.09,642.36 L339.11,642.37 L339.12,642.37 L339.13,642.38 L339.14,642.39 L339.14,642.4 L339.15,642.4 L339.15,642.41 L339.16,642.41 L339.16,642.42 L339.16,642.42 L339.17,642.43 L339.17,642.44 L339.17,642.44 L339.17,642.45 L339.18,642.46 L339.18,642.46 L339.18,642.47 L339.18,642.48 L339.18,642.49 L339.18,642.5 L339.18,642.5 L339.18,642.51 L339.18,642.52 C339.18,642.72,338.99,642.72,338.84,642.72 H332.9 C332.75,642.72,332.56,642.72,332.56,642.52 C332.56,642.32,332.75,642.32,332.89,642.32 Z " stroke-width="0" fill="black" />

<path d="M348.32,647.5 H343.36 V647.35 C343.98,647.28,344.13,647.21,344.13,646.94 C344.13,646.83,344.07,646.48,344.02,646.3 L342.8,641.9 C342.63,641.33,342.55,641.26,341.99,641.16 V641 H347.04 L347.66,642.61 L347.5,642.7 C347.03,642.05,346.77,641.8,346.34,641.6 C345.98,641.43,345.3,641.33,344.55,641.33 C343.99,641.33,343.75,641.43,343.75,641.67 C343.75,641.78,343.86,642.25,344.11,643.12 C344.24,643.56,344.33,643.89,344.43,644.27 C344.78,644.25,345.09,644.24,345.21,644.24 C345.6,644.25,345.88,644.19,345.98,644.09 C346.04,644.04,346.05,643.95,346.05,643.78 C346.05,643.61,346.04,643.48,345.98,643.26 L346.18,643.21 L346.86,645.52 L346.68,645.56 C346.3,644.72,346.21,644.66,345.31,644.62 C345.19,644.62,344.87,644.6,344.52,644.6 L345.18,646.92 C345.24,647.14,345.35,647.18,345.91,647.18 C347.47,647.18,347.82,647.05,347.82,646.45 C347.82,646.32,347.81,646.17,347.8,646 L348.01,645.98 Z " stroke-width="0" fill="black" />

<path d="M351.78,640.93 V641.28 V645.65 C352.49,645.38,352.91,644.44,352.91,643.17 C352.91,642,352.51,641.32,351.78,641.28 V640.93 C353,641.1,353.88,642.22,353.88,643.62 C353.88,644.98,353.04,645.97,351.78,646.06 V646.86 C351.78,647.23,351.79,647.41,351.81,647.65 L351.34,647.84 C351.36,647.59,351.37,647.35,351.37,646.95 V646.06 V645.71 V641.33 C351.09,641.44,350.89,641.6,350.74,641.83 C350.43,642.32,350.23,643.07,350.23,643.86 C350.23,644.98,350.66,645.68,351.37,645.71 V646.06 C350.18,645.92,349.27,644.78,349.27,643.41 C349.27,642.03,350.12,641.01,351.37,640.91 V639.9 C351.37,639.46,351.36,639.18,351.34,638.9 L351.81,638.79 C351.79,639.12,351.79,639.15,351.78,639.59 V639.85 Z " stroke-width="0" fill="black" />

<path d="M357.3,638.61 L357.3,638.61 L357.3,638.62 L357.3,638.62 L357.3,638.63 L357.3,638.63 L357.29,638.63 L357.29,638.64 L357.29,638.64 L357.29,638.64 L357.29,638.65 L357.29,638.65 L357.28,638.66 L357.28,638.66 L357.28,638.67 L357.27,638.67 L357.27,638.68 L357.26,638.69 L357.26,638.69 L357.25,638.7 L357.25,638.7 L357.25,638.71 L357.24,638.71 L357.24,638.71 L357.23,638.72 L357.23,638.72 L357.23,638.73 L357.22,638.73 L357.22,638.74 L357.21,638.74 L357.21,638.75 L357.2,638.75 L357.2,638.76 L357.19,638.77 L357.18,638.77 L357.18,638.78 L357.17,638.78 L357.17,638.79 L357.16,638.8 L357.15,638.81 L357.14,638.81 L357.14,638.82 L357.13,638.83 C355.88,640.08,355.56,641.97,355.56,643.49 C355.56,645.22,355.94,646.96,357.17,648.2 C357.3,648.32,357.3,648.34,357.3,648.37 C357.3,648.44,357.26,648.47,357.2,648.47 C357.1,648.47,356.2,647.79,355.61,646.53 C355.11,645.43,354.98,644.33,354.98,643.49 C354.98,642.72,355.1,641.51,355.64,640.38 C356.24,639.16,357.1,638.51,357.2,638.51 C357.26,638.51,357.3,638.54,357.3,638.61 Z " stroke-width="0" fill="black" />

<path d="M359.21,641 L359.25,641.16 L359.3,641.3 L359.34,641.44 L359.39,641.58 L359.43,641.71 L359.47,641.83 L359.5,641.95 L359.54,642.06 L359.57,642.16 L359.61,642.27 L359.64,642.36 L359.68,642.46 L359.71,642.54 L359.74,642.63 L359.77,642.71 L359.8,642.79 L359.83,642.87 L359.86,642.94 L359.92,643.08 L359.99,643.22 L360.05,643.35 L360.12,643.48 L360.19,643.61 L360.27,643.74 L360.31,643.81 L360.35,643.88 C360.68,644.44,360.96,644.75,361.13,644.75 C361.19,644.75,361.24,644.71,361.29,644.6 C361.37,644.44,361.45,644.39,361.64,644.39 C361.93,644.39,362.11,644.57,362.11,644.88 C362.11,645.18,361.91,645.4,361.64,645.4 C361.41,645.4,361.14,645.24,360.88,644.98 C360.47,644.56,360.07,643.97,359.91,643.57 L359.77,643.21 L360.3,645.38 L360.27,645.4 C359.54,645.27,359.45,645.24,358.73,645.12 V644.96 C358.96,645,359,645,359.07,645 C359.29,645,359.41,644.91,359.41,644.73 C359.41,644.59,359.41,644.59,359.25,643.91 L358.45,641 Z " stroke-width="0" fill="black" />

<path d="M364.88,643.49 L364.88,643.57 L364.88,643.64 L364.88,643.72 L364.87,643.8 L364.87,643.97 L364.85,644.15 L364.84,644.33 L364.82,644.52 L364.79,644.72 L364.76,644.91 L364.72,645.12 L364.67,645.33 L364.62,645.54 L364.56,645.75 L364.49,645.96 L364.41,646.17 L364.37,646.28 L364.32,646.39 L364.27,646.49 L364.22,646.6 C363.62,647.82,362.77,648.47,362.67,648.47 C362.61,648.47,362.57,648.43,362.57,648.37 C362.57,648.34,362.57,648.32,362.76,648.15 C363.73,647.16,364.3,645.57,364.3,643.49 C364.3,641.78,363.93,640.03,362.7,638.78 C362.57,638.66,362.57,638.64,362.57,638.61 C362.57,638.55,362.61,638.51,362.67,638.51 C362.77,638.51,363.66,639.19,364.25,640.45 C364.76,641.55,364.88,642.65,364.88,643.49 Z " stroke-width="0" fill="black" />

</g>

</svg>

