<?xml version="1.0" encoding="ISO-8859-1" standalone="no"?>

<!-- \tau=\left( \frac{\partial U}{\partial \sigma} \right)_{N}
 -->

<!DOCTYPE svg PUBLIC "-//W3C//DTD SVG 1.1//EN" "http://www.w3.org/Graphics/SVG/1.1/DTD/svg11.dtd">

<svg version="1.1" baseProfile="full" id="body" width="4in" height="1.92592592593in" viewBox="0 0 54 26" preserveAspectRatio="none" xmlns="http://www.w3.org/2000/svg" xmlns:xlink="http://www.w3.org/1999/xlink" xmlns:ev="http://www.w3.org/2001/xml-events">
<title>SVG drawing</title>

<desc>This was produced by version 4.4 of GNU libplot, a free library for exporting 2-D vector graphics.</desc>

<g id="content" transform="scale(1,-1) translate(-279,-657)" xml:space="preserve" stroke="black" stroke-linecap="butt" stroke-linejoin="miter" stroke-miterlimit="10.433" stroke-dasharray="none" stroke-dashoffset="0" stroke-opacity="1" fill="none" fill-rule="evenodd" fill-opacity="1" font-style="normal" font-variant="normal" font-weight="normal" font-stretch="normal" font-size-adjust="none" letter-spacing="normal" word-spacing="normal" text-anchor="start">
<path d="M280.36,645.08 L280.38,645.13 L280.4,645.19 L280.42,645.24 L280.45,645.29 L280.47,645.34 L280.49,645.39 L280.51,645.44 L280.54,645.49 L280.56,645.53 L280.59,645.58 L280.61,645.62 L280.64,645.66 L280.66,645.7 L280.69,645.74 L280.72,645.78 L280.75,645.82 C280.89,645.98,281.02,646.03,281.29,646.03 H282.01 C281.86,644.94,281.8,644.19,281.8,643.57 C281.8,642.51,282.17,641.87,282.79,641.87 C283.19,641.87,283.59,642.16,283.75,642.57 C283.87,642.85,283.91,643.14,283.93,643.6 H283.68 C283.6,643.03,283.46,642.84,283.15,642.84 C282.71,642.84,282.37,643.25,282.37,643.79 C282.37,643.95,282.39,644.26,282.42,644.61 C282.43,644.71,282.45,645.01,282.47,645.33 C282.5,645.71,282.5,645.8,282.53,646.03 H284.16 V646.98 H281.9 C281.39,646.98,281.07,646.85,280.76,646.5 C280.44,646.16,280.27,645.78,280.1,645.08 Z " stroke-width="0" fill="black" />

<path d="M292.84,645.26 L292.87,645.26 L292.9,645.26 L292.93,645.26 L292.94,645.26 L292.96,645.26 L292.97,645.26 L292.99,645.26 L293,645.27 L293.02,645.27 L293.03,645.27 L293.04,645.27 L293.06,645.28 L293.07,645.28 L293.08,645.29 L293.09,645.29 L293.1,645.3 L293.12,645.31 L293.13,645.31 L293.13,645.32 L293.14,645.33 L293.15,645.34 L293.16,645.35 L293.16,645.35 L293.16,645.36 L293.17,645.36 L293.17,645.37 L293.17,645.38 L293.17,645.38 L293.18,645.39 L293.18,645.4 L293.18,645.41 L293.18,645.41 L293.18,645.42 L293.18,645.43 L293.18,645.44 L293.18,645.45 L293.18,645.46 C293.18,645.66,292.99,645.66,292.86,645.66 H286.89 C286.75,645.66,286.56,645.66,286.56,645.46 C286.56,645.26,286.75,645.26,286.9,645.26 Z " stroke-width="0" fill="black" />

<path d="M292.86,643.32 L292.87,643.32 L292.88,643.32 L292.91,643.32 L292.94,643.33 L292.95,643.33 L292.96,643.33 L292.98,643.33 L292.99,643.33 L293.01,643.33 L293.02,643.33 L293.03,643.34 L293.05,643.34 L293.06,643.34 L293.07,643.35 L293.08,643.35 L293.09,643.36 L293.11,643.37 L293.12,643.37 L293.13,643.38 L293.14,643.39 L293.14,643.4 L293.15,643.4 L293.15,643.41 L293.16,643.41 L293.16,643.42 L293.16,643.42 L293.17,643.43 L293.17,643.44 L293.17,643.44 L293.17,643.45 L293.18,643.46 L293.18,643.46 L293.18,643.47 L293.18,643.48 L293.18,643.49 L293.18,643.5 L293.18,643.5 L293.18,643.51 L293.18,643.52 C293.18,643.72,292.99,643.72,292.84,643.72 H286.9 C286.75,643.72,286.56,643.72,286.56,643.52 C286.56,643.32,286.75,643.32,286.89,643.32 Z " stroke-width="0" fill="black" />

<path d="M302.97,632.6 L302.97,632.6 L302.97,632.61 L302.97,632.61 L302.97,632.61 L302.97,632.61 L302.97,632.62 L302.97,632.62 L302.97,632.62 L302.97,632.63 L302.97,632.63 L302.97,632.63 L302.97,632.64 L302.96,632.64 L302.96,632.64 L302.96,632.65 L302.96,632.65 L302.95,632.66 L302.95,632.66 L302.95,632.67 L302.94,632.67 L302.94,632.68 L302.94,632.68 L302.94,632.69 L302.93,632.69 C302.57,633.05,301.9,633.72,301.23,634.8 C299.62,637.37,298.9,640.61,298.9,644.45 C298.9,647.12,299.26,650.58,300.9,653.55 C301.69,654.97,302.5,655.78,302.95,656.22 C302.97,656.25,302.97,656.27,302.97,656.3 C302.97,656.4,302.9,656.4,302.77,656.4 C302.62,656.4,302.61,656.4,302.46,656.25 C299.12,653.21,298.07,648.65,298.07,644.45 C298.07,640.54,298.97,636.59,301.5,633.61 C301.7,633.39,302.08,632.98,302.48,632.62 C302.61,632.5,302.62,632.5,302.77,632.5 C302.9,632.5,302.97,632.5,302.97,632.6 Z " stroke-width="0" fill="black" />

<path d="M306.07,655.72 L306.11,655.74 L306.15,655.76 L306.19,655.78 L306.23,655.79 L306.27,655.81 L306.31,655.83 L306.35,655.85 L306.38,655.86 L306.42,655.88 L306.46,655.89 L306.53,655.92 L306.6,655.94 L306.67,655.96 L306.73,655.98 L306.8,655.99 L306.86,656.01 L306.93,656.02 L306.99,656.03 L307.06,656.03 L307.12,656.03 L307.18,656.03 C308.19,656.03,308.78,655.09,308.78,653.47 C308.78,653.18,308.76,652.95,308.71,652.45 L308.56,652.19 C308.61,652.15,308.61,652.15,308.64,652.11 H308.64 C308.49,651,308.39,650.57,308.13,650.07 C307.87,649.54,307.44,649.21,307,649.21 C306.46,649.21,306.12,649.74,306.12,650.59 C306.12,651.72,306.79,652.66,307.6,652.66 C307.94,652.66,308.24,652.52,308.56,652.19 L308.71,652.45 C308.07,652.95,307.71,653.1,307.2,653.1 C306.71,653.1,306.3,652.93,305.95,652.53 C305.51,652.08,305.26,651.45,305.26,650.83 C305.26,649.76,306.09,648.9,307.12,648.9 C307.81,648.9,308.4,649.23,308.82,649.84 C309.27,650.52,309.6,651.85,309.6,653 C309.6,655,308.46,656.5,306.94,656.5 C306.55,656.5,306.21,656.42,305.66,656.22 Z " stroke-width="0" fill="black" />

<path d="M316.62,655.5 H314.64 V655.35 C314.96,655.32,315.06,655.3,315.18,655.22 C315.28,655.16,315.35,655.02,315.35,654.89 C315.35,654.73,315.09,653.71,314.61,652.03 C314.57,651.9,314.53,651.73,314.48,651.54 C314.3,650.9,314.15,650.5,313.93,650.16 C313.54,649.54,313,649.23,312.31,649.23 C311.48,649.23,310.91,649.71,310.91,650.41 C310.91,650.74,311.22,651.95,311.89,654.25 C311.91,654.32,311.93,654.39,311.94,654.44 C312.15,655.14,312.31,655.28,312.98,655.35 V655.5 H310.27 V655.35 C310.93,655.28,311.04,655.23,311.04,654.94 C311.04,654.82,311.01,654.66,310.97,654.49 L310.45,652.58 C310.14,651.5,310.02,650.86,310.02,650.47 C310.02,649.51,310.93,648.82,312.19,648.82 C313.49,648.82,314.32,649.53,314.76,651.02 L315.59,653.86 C315.96,655.16,316,655.21,316.62,655.35 Z " stroke-width="0" fill="black" />

<line x1="304.7" y1="644.3" x2="317.24" y2="644.3" stroke-width="0.405" />

<path d="M307.07,641.72 L307.11,641.74 L307.15,641.76 L307.19,641.78 L307.23,641.79 L307.27,641.81 L307.31,641.83 L307.35,641.85 L307.38,641.86 L307.42,641.88 L307.46,641.89 L307.53,641.92 L307.6,641.94 L307.67,641.96 L307.73,641.98 L307.8,641.99 L307.86,642.01 L307.93,642.02 L307.99,642.03 L308.06,642.03 L308.12,642.03 L308.18,642.03 C309.19,642.03,309.78,641.09,309.78,639.47 C309.78,639.18,309.76,638.95,309.71,638.45 L309.56,638.19 C309.61,638.15,309.61,638.15,309.64,638.11 H309.64 C309.49,637,309.39,636.57,309.13,636.07 C308.87,635.54,308.44,635.21,308,635.21 C307.46,635.21,307.12,635.74,307.12,636.59 C307.12,637.72,307.79,638.66,308.6,638.66 C308.94,638.66,309.24,638.52,309.56,638.19 L309.71,638.45 C309.07,638.95,308.71,639.1,308.2,639.1 C307.71,639.1,307.3,638.93,306.95,638.53 C306.51,638.08,306.26,637.45,306.26,636.83 C306.26,635.76,307.09,634.9,308.12,634.9 C308.81,634.9,309.4,635.23,309.82,635.84 C310.27,636.52,310.6,637.85,310.6,639 C310.6,641,309.46,642.5,307.94,642.5 C307.55,642.5,307.21,642.42,306.66,642.22 Z " stroke-width="0" fill="black" />

<path d="M315.86,639.11 V639.98 H313.6 C312.81,639.98,312.27,639.89,311.81,639.69 C310.85,639.25,310.3,638.48,310.3,637.55 C310.3,636.9,310.55,636.25,311.01,635.73 C311.52,635.13,312.09,634.87,312.88,634.87 L313.02,635.3 C312.1,635.3,311.34,636.3,311.34,637.53 C311.34,638.49,311.96,639.11,312.9,639.11 H313.21 C314.07,638.23,314.25,637.85,314.25,637.03 C314.25,636,313.76,635.3,313.02,635.3 L312.88,634.87 C313.56,634.87,314.13,635.08,314.59,635.49 C315.04,635.9,315.31,636.47,315.31,637 C315.31,637.76,314.73,638.51,313.68,639.11 Z " stroke-width="0" fill="black" />

<path d="M323.25,644.45 L323.24,645.18 L323.21,645.91 L323.15,646.64 L323.07,647.37 L322.97,648.09 L322.83,648.81 L322.67,649.52 L322.49,650.21 L322.27,650.9 L322.15,651.24 L322.02,651.58 L321.88,651.91 L321.74,652.24 L321.59,652.56 L321.43,652.88 L321.26,653.2 L321.08,653.51 L320.89,653.82 L320.7,654.12 L320.49,654.42 L320.28,654.71 L320.06,655 L319.82,655.28 C319.62,655.51,319.25,655.92,318.84,656.28 C318.72,656.4,318.7,656.4,318.56,656.4 C318.44,656.4,318.35,656.4,318.35,656.3 C318.35,656.26,318.39,656.22,318.41,656.2 C318.76,655.84,319.43,655.17,320.09,654.1 C321.7,651.53,322.42,648.29,322.42,644.45 C322.42,641.77,322.07,638.32,320.42,635.35 C319.63,633.93,318.81,633.1,318.39,632.69 C318.37,632.66,318.35,632.63,318.35,632.6 C318.35,632.5,318.44,632.5,318.56,632.5 C318.7,632.5,318.72,632.5,318.87,632.65 C322.2,635.69,323.25,640.25,323.25,644.45 Z " stroke-width="0" fill="black" />

<path d="M331.36,636.81 H329.89 V636.7 C330.31,636.66,330.41,636.59,330.41,636.32 C330.41,636.23,330.39,636.15,330.34,636 C330.34,635.97,330.33,635.95,330.33,635.94 L329.57,633.14 L328.04,636.81 H326.86 V636.7 C327.2,636.67,327.36,636.57,327.49,636.28 L326.61,633.21 C326.33,632.27,326.27,632.18,325.85,632.12 V632 H327.31 V632.12 C326.94,632.15,326.8,632.23,326.8,632.43 C326.8,632.53,326.82,632.68,326.86,632.83 L327.7,635.95 L329.4,631.89 H329.53 L330.59,635.6 C330.87,636.55,330.89,636.59,331.36,636.7 Z " stroke-width="0" fill="black" />

</g>

</svg>

